<svg xmlns="http://www.w3.org/2000/svg" viewBox="0 0 336.79 96.51"><defs/><path d="M0 67c6-.28 8.94-3.77 10.88-9.19C17.56 39 24.59 20.38 31.48 1.69A16.85 16.85 0 0031.93 0h1.78c3.57 9 7.17 18 10.72 27s7.14 18.33 10.74 27.49c.7 1.77 1.53 3.49 2.33 5.23 1.69 3.66 4.17 6.38 8.48 6.88a13.86 13.86 0 012 .62c-3.55 1.08-13 1.22-18 .47-.13-1.69.07-3.42-.46-4.89C47.39 56.86 45 51 42.83 45.08c-.7-2-1.68-2.83-3.83-2.78-4.73.12-9.46.07-14.19 0-1.81 0-3 .42-3.64 2.38-1.65 5.32-3.63 10.57-5.24 15.9-1.35 4.45-1.19 4.49 3.32 6.33.22.09.33.43.72 1H0zm31.54-53.38c-2.89 8.85-5.46 16.7-8.12 24.79h16.92zM0 74c1.62-.07 3.24-.19 4.86-.19h313.45a37.71 37.71 0 014 .11c.46 0 .87.58 1.3.88-.44.49-.79 1.16-1.33 1.4a6 6 0 01-2.18.24H5.75c-1.92 0-3.83.13-5.75.19zM0 79.31c1.77.07 3.53.19 5.3.19h77.5a17.42 17.42 0 015.12.67c-1.19 1.53-2.81 1.06-4.24 1.06q-34.32.06-68.64 0c-5 0-10-.13-15-.19zM222.75 37.66c-.93 16.41 14.6 30.42 33.91 27 4.28-.77 7.35-2.89 8.63-7.19a8.18 8.18 0 01.88-2 1.23 1.23 0 011-.47 1.18 1.18 0 01.64.95c-.25 2.17-.64 4.33-.91 6.51-.45 3.74-2.53 5.7-6.28 6.2-8.11 1.09-16.23 1.38-24.15-.82-11.05-3.07-18.87-9.77-21.33-21.27-2.42-11.26.26-21.24 9-29.24a27.24 27.24 0 0115.18-6.65c8.84-1.21 17.63-.24 26.35 1.48 1.33.26 2.2.7 2.09 2.24-.26 3.51-.44 7-.74 10.52 0 .44-.56.85-.86 1.27-.34-.39-.94-.77-1-1.18-.37-6.26-4.55-8.82-10-10.15a36.4 36.4 0 00-17.93 0c-8.49 2.19-13.84 9.13-14.54 18.4-.04 1.46.06 2.93.06 4.4zM137.76 67.79h-19.64c5-3 5.09-3 5.13-8.54.1-13.21.09-26.42.12-39.64 0-.88-.11-1.76-.1-2.64 0-2.23-.82-3.62-3.27-3.82a3.74 3.74 0 01-2.51-1.52 9.87 9.87 0 012-.39c7.68 0 15.37-.13 23 .21a23.25 23.25 0 018.51 2.24c5 2.27 6.92 6.75 6.75 11.92a17.4 17.4 0 01-15 16.65 36.74 36.74 0 01-5.75.26 16.74 16.74 0 01-2.65-.38c.72-2.2 2.46-1.51 3.78-1.65 6.22-.63 10.66-4.08 12-9.41 2.49-9.76-7-19.24-16.83-16.75a2.37 2.37 0 00-2.09 2.42v2.2q0 20.27.12 40.52c0 .74 0 1.47.05 2.2.25 3.13.75 3.71 3.75 4.51.94.25 1.86.57 2.79.87zM199.63 20.9c-.56-5.44-4.37-5.83-8.39-5.87-2.22 0-4.43.05-6.65 0-1.84-.07-2.67.59-2.64 2.53.08 5.43 0 10.86.1 16.28 0 .75.94 2.11 1.47 2.12 4.42.12 8.86.08 13.28-.11 1.08 0 2.13-.86 3.93-1.64-.43 4-.8 7.48-1.19 11.14-.72-.36-1.18-.46-1.19-.61-.45-3.67-2.93-4.73-6.19-4.8-2.5-.06-5-.05-7.52-.15-1.8-.08-2.72.46-2.69 2.46.08 5.72-.06 11.44.06 17.16.08 3.43 1 4.36 4.33 5a12.57 12.57 0 002.61.47c5.61-.14 11.89 1.08 13.94-7.34 1.87 2.83.54 4.91.33 6.9-.13 1.11-.44 2.53-1.21 3.14a6.08 6.08 0 01-3.65 1c-4.27 0-8.54-.37-12.81-.47-3.84-.09-7.68 0-11.51 0a11.5 11.5 0 01-4.87-.74c.44-.31.85-.82 1.33-.89 2.59-.39 3.3-2 3.33-4.39.19-13.63.43-27.25.63-40.88 0-.73-.3-1.45-.29-2.18.08-3.68-1-6.31-5.36-6.23-.18 0-.36-.41-1-1.15 1.47-.16 2.64-.41 3.81-.41 7.09 0 14.17.11 21.26.08 2.35 0 4.69-.38 7-.42.68 0 2 .63 2 .87-.26 3-.71 5.93-1.12 8.89zM101.18 22c-.67-.72-1.14-1-1.2-1.31-1-5.76-5.46-6.75-10.2-7.16a13.81 13.81 0 00-4.36.54c-6.61 1.63-8.8 8.09-4.3 13.22a49.29 49.29 0 007 6c2.9 2.26 6.06 4.2 8.84 6.59 4.15 3.56 7 7.89 6.94 13.65a14.81 14.81 0 01-9.47 14.1c-6.71 2.52-13.56 2.22-20.39.27-1.93-.55-3.1-1.72-3-3.8.19-3 .47-6 .72-9l.87-.08a6.77 6.77 0 01.92 2.12c.24 4.13 2.79 6.38 6.36 7.6a17.77 17.77 0 009.56.56 9.43 9.43 0 005.37-15.46 45.94 45.94 0 00-6.17-5.63c-3.72-3.1-7.8-5.85-11.18-9.28A19.41 19.41 0 0173 27.09c-1.66-5.47 1.12-11.33 6-14.37a21.45 21.45 0 0111.92-2.84 52.16 52.16 0 019.15 1.38c.7.14 1.79.91 1.82 1.43.11 2.97.44 6.02-.71 9.31zM322.4 21.28c-.67-5-4.29-5.69-8.08-6-2.94-.22-5.9-.12-8.86-.19-1.48 0-2.16.67-2.15 2.12v1.76c0 13.5.05 27 .14 40.51 0 5.49.1 5.49 5.51 7.12a5.58 5.58 0 011.14.69c-3.16 1-15.13 1.11-20 .19a9.59 9.59 0 012.15-1.09c2-.38 2.6-1.84 2.82-3.49a40 40 0 00.32-5.26V19.33c0-4.23 0-4.23-4.43-4.26h-4c-4.72 0-9.53-.14-12.25 6-1.15-4.12.1-6.93 1.09-9.69.19-.52 1.74-.89 2.61-.81 14.44 1.3 28.88 1 43.32.16 1.23-.07 2.12.16 2.13 1.51 0 2.86-.11 5.71-.17 8.57zM234.57 80.6c4.14-1.36 56.64-1.87 85.1-1.07 1.23 0 2.45.32 4.6.61-3.9 1.33-84.07 1.57-89.7.46zM151.42 96.29c1.91-5.71.23-11.18 1.43-17.26l12 12.73c-.19-4.52.78-8.21-1-11.74 3.31-.45 3.22-.45 3.14 2.14-.11 3.65 0 7.31-.13 11a11.37 11.37 0 01-.77 2.71 12.59 12.59 0 01-2.47-1.55c-2.57-2.61-5-5.33-7.56-8a12 12 0 00-1.4-1.13c-.61 6.16-.51 7.48.9 10.78zM215 95.75a4.55 4.55 0 01-5.9-1.5c-.46-.58-.87-1.18-1.36-1.73-1-1.13-1.79-3.34-3.59-2.31-.77.45-.47 2.82-.54 4.33 0 .35.43.71.88 1.39h-4.14c0-5 .15-9.72-.09-14.47-.07-1.42.13-1.95 1.42-1.9a25.33 25.33 0 015.66.52c2.57.7 4.09 3.4 2.64 5.49-2.69 3.87.07 5.83 2.14 8.12a17 17 0 002.88 2.06zm-11.72-12.29c0 1.53-.05 2.11 0 2.68.18 1.55 1.28 2.28 2.65 1.74 2-.77 1.66-2.5 1.52-4s-1.2-2.9-2.84-2.43c-.78.18-1.18 1.77-1.33 2.01zM128.45 79.43a47.81 47.81 0 016 .48c2.66.56 3.8 2.39 2.72 4.88-.72 1.69-.18 2.38.79 3.61 2.76 3.48.86 7.44-3.64 7.81-1.88.16-3.78 0-5.47 0 .58-5.66 1-10.91-.4-16.78zM132 90.17a8.52 8.52 0 000 2.47c.37.82.85 2 1.51 2.17a2.16 2.16 0 002.81-2 4.2 4.2 0 00-.53-2.85 4.57 4.57 0 00-2.79-1.45c-.31-.06-.88 1.49-1 1.66zm-.47-6.47l1.88 2.48c.48-.61 1.28-1.19 1.36-1.85.13-1.24.1-2.8-1.72-2.8-.43-.01-.86 1.17-1.53 2.17zM110 95.2c2.15.07 2.6-1.63 3.16-3.11 1.26-3.28 2.42-6.59 3.67-9.87.35-.91.88-1.75 1.61-3.19l7.09 16.79c-3 .49-2.9.47-4.2-2.49-.5-1.13-1.09-2.57-2.06-3.06-2-1-3.68.26-4.4 2.79-1.1 3.88-1.1 3.88-4.81 2.06z"/><path d="M110 95.12c-3.29 2-6.85 1.51-10.2.58-3.18-.89-5.11-4.5-5-8s2.06-6.74 5.47-7.67a18.72 18.72 0 016.5-.53c3.09.29 3.18.68 2.81 4.93-1.66-2.45-3.64-3.84-6.33-3.26a8.64 8.64 0 00-3.94 1.54c-2.64 2.37-2.18 7.74.62 10.29 3.1 2.8 6.33 2.61 9.87-.84l.2 3.04zM172.75 96V79.58c2.21 0 4.55-.11 6.86.08.46 0 .83 1.2 1.24 1.84a4.38 4.38 0 01-1.63.22c-1.42-.43-2.93-1.22-3.4 1-.55 2.55.14 3.43 2.64 3.75.57.07 1.34 0 1.63.3a2.13 2.13 0 01.11 1.63c-.31 1.18-.82.4-1.5.21-2.53-.67-2.82-.37-2.94 2.15-.2 4.42.81 5 5.13 3-.34 2.87-.53 2.92-8.14 2.24zM192.39 96a16.83 16.83 0 01-2.07.22c-.7 0-1.41-.12-2.11-.18 1.12-4.46.43-8.78.58-13.07 0-1.36-.8-1.83-2-1.67s-2.44.51-3.76.79c.09-1.52.4-2.66 2.2-2.63 3.37 0 6.75 0 10.13.08.41 0 1 .12 1.19.39a2.54 2.54 0 01.3 1.62c0 .19-.8.43-1.2.38a14.29 14.29 0 00-2.49-.55c-.52 0-1.42.76-1.42 1.18.01 4.44-.74 8.89.65 13.44zM222.8 96H218c2.87-6.78-2.05-10.79-5-15.72 1.69-1.15 3-1.19 4 1 .85 1.84 1.92 3.59 3.3 6.11 1.27-2.45 2.17-4.33 3.21-6.13a4.38 4.38 0 011.67-1.64c.32-.18 1 .26 1.49.55.08 0-.14.75-.35 1.06-1.19 1.85-2.52 3.61-3.61 5.51-1.6 2.88-1.57 5.39.09 9.26zM142.81 96.25c1.29-5.14.78-9.8.58-14.42-.06-1.36-.29-2.23 1.45-2.3 2-.08 1.84.81 1.7 2.45-.3 3.62-.19 7.29-.13 10.94a14.56 14.56 0 00.81 3.12zM332.29 14.43c.25-1.78.53-3.8.94-6.72 1.56 2.1 2.62 3.35 3.45 4.74.27.47 0 1.28-.09 1.94-.55-.22-1.27-.29-1.64-.69-2.27-2.44-.8 1.52-2.66.73zM331.47 8.09a16.23 16.23 0 00-2 3.35 11.91 11.91 0 000 3c0 .19-.4.55-.56.52-.36-.07-1-.3-1-.51-.08-1 .15-2 0-3a5.67 5.67 0 00-1.06-2.09c-.18-.26-.64-.33-1-.49.28-.26.56-.72.86-.73 1.55-.09 3.1-.05 4.76-.05z"/></svg>
