<svg xmlns="http://www.w3.org/2000/svg" viewBox="0 0 197.5 65.18"><defs/><path d="M0 1.53c6.41 0 12.81-.05 19.22 0a25.93 25.93 0 017.1 1.07 14.45 14.45 0 016.85 4 13.44 13.44 0 013.27 6.51 22 22 0 01.44 4.45 16 16 0 01-.31 3.53 11.36 11.36 0 01-1.43 3.53A11.8 11.8 0 0133 27.35a11.61 11.61 0 01-5 2.76c-.64.15-1.26.38-1.88.59-.08 0-.14.12-.32.28l1.35.22a14.79 14.79 0 016.63 2.65A14 14 0 0139 41.29a20.35 20.35 0 01.65 6.49 15.34 15.34 0 01-2.55 8.14 15.61 15.61 0 01-7.69 5.93 24.39 24.39 0 01-7.58 1.65c-1.89.07-3.79.1-5.69.11H.04zm12.59 56.89h5.29a22.34 22.34 0 009.49-1.68 10.5 10.5 0 005.29-4.91 12.11 12.11 0 001.22-6.39 12.24 12.24 0 00-1.83-5.89 11.27 11.27 0 00-4.11-3.83 18 18 0 00-8.84-2.15H7.64c-.78 0-1.56.06-2.34 0s-.71-.06-.71.67v17.2c0 2.13.08 4.25.1 6.38 0 .45.19.55.6.55zm-8-40.92v10c0 .85.08.92.89.92h12.34A17.79 17.79 0 0025.06 27a10.06 10.06 0 004.56-3.7c2-3.1 2-6.37.9-9.72a8.37 8.37 0 00-3.58-4.68 14.72 14.72 0 00-7.78-2.17c-4.66-.11-9.32-.05-14 0a.75.75 0 00-.52.39 1.55 1.55 0 00-.07.69zM127.31 0c1 .19 1.95.37 2.92.58a18.79 18.79 0 019.19 4.91c.59.56 1.09 1.22 1.64 1.83.23.25.19.44-.07.63l-4.18 3c-.28.2-.44 0-.62-.18a14.5 14.5 0 00-6-4.69 16.6 16.6 0 00-6.21-1A16.06 16.06 0 00116.26 7a10.58 10.58 0 00-5.9 9.09 11.48 11.48 0 001.42 6.76 10.28 10.28 0 003.58 3.57c3.14 2 6.66 3 10.17 4a46.74 46.74 0 018.77 3.29 14.52 14.52 0 016.7 6.69 16.38 16.38 0 011.3 5 18.08 18.08 0 01-1.14 9.15 16.08 16.08 0 01-6.63 7.6 17.75 17.75 0 01-6.5 2.57 38.31 38.31 0 01-4.66.47 25.07 25.07 0 01-4.5-.17 36.74 36.74 0 01-5.48-1.22 20 20 0 01-8.29-5.15c-.72-.72-1.33-1.54-2-2.31-.23-.26-.25-.45.07-.66 1.6-1 3.2-2.12 4.78-3.19.4-.27.54 0 .73.26a14.7 14.7 0 005.44 5.21A18.11 18.11 0 00128.63 59c4.5-1.8 7.38-4.95 8-9.9a9.92 9.92 0 00-5.25-10.34 38 38 0 00-7.93-3.18 57.35 57.35 0 01-10.78-4.12 14.57 14.57 0 01-7.93-11.29 19.35 19.35 0 01.3-7.62 15.28 15.28 0 016.91-9.26 21.63 21.63 0 019.33-3.18 4.64 4.64 0 00.51-.11zm70.19 6.69h-21.22c-1 0-1 0-1 1q0 18.59.08 37.19v5.15c0 4.26-.06 8.52-.09 12.78 0 .71-.07.79-.76.8h-4.23c-.49 0-.66-.18-.66-.65v-9.68c0-.82-.11-1.63-.1-2.44 0-8 .08-16 .1-23.93V7.61c0-.9 0-.92-.92-.92h-5.24c-4.81 0-9.63-.07-14.45-.08-.51 0-.69-.15-.68-.67V2.3c0-.52.17-.67.68-.67h22.64c2.45 0 4.89-.09 7.34-.1h18.52zM54.53 32.56V2.76c0-1.23 0-1.23 1.21-1.23h29.92c.94 0 1.87.08 2.81.07 1.15 0 2.31-.05 3.46-.12.42 0 .57.11.56.52v4.16c0 .43-.21.54-.58.53-1.59 0-3.17-.08-4.75-.09-.9 0-1.8.08-2.7.08-3.68 0-7.36-.06-11-.07H61.01c-.87 0-.85 0-.85.84v20.59c0 1 0 1 1 1h16.1q6.29 0 12.57-.06c.53 0 .74.12.73.68v3.87c0 .5-.21.65-.67.65h-6.4c-2.14 0-4.06-.09-6.1-.09-2.88 0-5.75.07-8.63.09-1.43 0-2.85-.08-4.28-.09h-3.4c-.86 0-.85 0-.85.87V57.8c0 .75 0 .75.77.74 2.25 0 4.49-.1 6.74-.1h14.28c2 0 4.1.06 6.15.05 1.68 0 3.37-.07 5.05-.09.71 0 .77.05.77.76v3.7c0 .57-.19.73-.75.73H55.18c-.48 0-.65-.19-.65-.66V32.56z"/></svg>
