<svg xmlns="http://www.w3.org/2000/svg" viewBox="0 0 259.8 317.12"><defs/><path d="M94.28 98.56a7 7 0 00-.8 1.4l3.78-5.09a50.052 50.052 0 00-2.98 3.69z"/><path d="M198.62 0A61.76 61.76 0 00170 7a60.39 60.39 0 00-21.36 18.8L97.26 94.87 93.48 100l-65 87.38a7.08 7.08 0 00.58 9.14c.42.44 9.08 9.3 25.8 17.3L1.4 285.64a7.1 7.1 0 003.37 10.93l58.44 20.16a7.09 7.09 0 009.3-5.53l10.54-63.12c6.28.87 16.25 2.07 28 2.83h.08l9.13.5h.39c18.83 0 36.82-2.66 52-7.7 18.07-6 32.29-15.22 42.28-27.42 15.36-18.81 20.07-43.77 14.07-74.17-3.7-24.27-2-36-1.95-36.09s0-.19 0-.28a34.6 34.6 0 0126.57-29.3 7.08 7.08 0 005.47-6.17 7.81 7.81 0 00.17-.84 63.19 63.19 0 00.55-8.26A61.25 61.25 0 00198.62 0zm-44.75 90.54c15.72 4 25.79 17 28.35 36.47 3.18 23.46-3.15 47.17-17 63.44-12.1 14.26-29.37 22.11-49.95 22.71-16.21.47-27.43-2-37.81-5.7 20.65-27.63 52.07-69.66 53.16-71.1l.33-.46c8.58-13.11 4.91-22.87-1.38-27.62-5.37-4.07-13.25-5.08-22.1-3 10.65-12.6 30.11-18.92 46.4-14.74zm-110.09 100l37.43-50.32a7.27 7.27 0 001.48-1.3c17.62-20.26 34.41-21.78 38.11-19 1.25 1 .44 4.18-2 7.89-1.84 2.43-10.6 14.15-55.53 74.27a97 97 0 01-19.49-11.57zM245.54 64A48.81 48.81 0 00213 103.88c-.26 1.74-2 14.94 2 40.54l.06.33c5.25 26.11 1.5 47.17-11.12 62.58-8.26 10.09-20.3 17.82-35.78 22.95-13.7 4.55-30.07 7-47.34 7l-8.9-.49c-18.8-1.23-33.33-3.71-33.47-3.74a7.1 7.1 0 00-8.19 5.82l-10.34 61.74-41.37-14.28 49.64-66.74a113.59 113.59 0 0043.32 8.22c1.37 0 2.79 0 4.23-.06 24.82-.72 45.8-10.35 60.65-27.86 16.43-19.37 24-47.35 20.3-74.81-3.34-25.4-17.62-43.15-39.19-48.67a59.87 59.87 0 00-28.87 0l31.44-42.27.13-.18a46.14 46.14 0 0138.42-19.82 47.07 47.07 0 0147 47q.01 1.47-.08 2.86z"/></svg>
