<svg xmlns="http://www.w3.org/2000/svg" viewBox="0 0 576.56 576.56"><defs/><path d="M277.52 576.56a45.67 45.67 0 00-5.74-1 275.19 275.19 0 01-59.39-9.62 290.16 290.16 0 01-51.18-19.4 283.65 283.65 0 01-56.76-36.77 276.32 276.32 0 01-27.14-25.67 293.54 293.54 0 01-27.05-33.87 290.39 290.39 0 01-20.71-35.76 280.86 280.86 0 01-23.07-67.23C3.53 333 1 318.5.93 303.78A25.62 25.62 0 000 299v-22a73.17 73.17 0 001.15-7.73C2 252 5 235.05 9.06 218.21a285.45 285.45 0 0156.83-113.1 292.08 292.08 0 0128.5-30 319.52 319.52 0 0132.85-26c8.82-6.11 18.36-11.31 27.87-16.43a261.25 261.25 0 0142.63-18.09 285.09 285.09 0 0153.4-12.06A306.3 306.3 0 01295.41.06a282.86 282.86 0 0151.45 5.83 238.66 238.66 0 0138.33 10.84c10.07 3.93 20.1 7.84 29.84 12.58a296 296 0 0148.27 29.83 275.8 275.8 0 0147.06 45.11 284.24 284.24 0 0136.31 55.93 288 288 0 0114.84 35.9 267.24 267.24 0 0111 44.43 313.86 313.86 0 014 53.62 294.33 294.33 0 01-5.83 52.47c-2.37 11.69-6 23.15-9.59 34.56a240.93 240.93 0 01-16.26 38.54A291.92 291.92 0 01458 521a274.19 274.19 0 01-33.25 21.07 277.76 277.76 0 01-65.41 25.25c-17.48 4.22-35.09 7.43-53.11 8.14a54.1 54.1 0 00-6.74 1.11zM288.26 9.12C136.67 9.38 9.84 131 9.53 288c-.29 151.5 120.98 278.76 278.9 279 153.5.26 278.31-122.87 279-278C568 134.34 443.15 9.36 288.26 9.12z"/><path d="M351.13 341.56h-44.91c-5 0-4.81-.15-6.85-4.6-2.14-4.67-4.66-9.18-7.24-13.63-5.1-8.76-10.37-17.43-15.56-26.13l-2.94-5c-1.38 1.36-2.68 2.83-4.18 4.05a7.46 7.46 0 00-2.81 6.54c.14 5.49 0 11 .06 16.47a39.22 39.22 0 00.45 4.45c.59 4.76 3.47 7.37 8 8.42 1 .23 2 .31 2.95.48 4.15.74 5.73 3.38 4.27 7.36a2.82 2.82 0 01-1.75 1.41 10.86 10.86 0 01-3 .16h-47.41c-2.14 0-3-1.15-2.9-3.14v-2c-.13-2.32.64-3.88 3.27-3.94a9.62 9.62 0 001.48-.22c4.65-.8 7.41-3.55 8.12-8.21a52.81 52.81 0 00.84-7.92v-57.86c0-.67 0-1.34-.07-2-.61-6.11-3-8.75-9-10.33-1.52-.4-3.79-.91-4.18-2-.71-1.89-.39-4.22-.23-6.35 0-.53 1-1.21 1.72-1.4a11.25 11.25 0 013-.15h42.41c.83 0 1.66 0 2.5.06 1.88 0 2.64 1.13 2.67 2.89v3c.15 2.24-1 3.19-3.08 3.76-7.56 2.06-9.69 4.85-10 12.62q-.39 10.2-.76 20.4a6.08 6.08 0 00.25 1.38c.58-.19 1.33-.22 1.71-.6 3.37-3.45 6.66-7 10-10.44s6.58-6.59 9.73-10a40 40 0 005.19-6.66c2-3.44.63-6.18-3.17-7.18-1.52-.4-3.81-.44-4.36-1.42-.8-1.42-.37-3.54-.38-5.36 0-1.65.93-2.37 2.52-2.39.83 0 1.66-.06 2.49-.06 11.15 0 22.29-.05 33.44 0 1.54 0 4.17.37 4.42 1.16a17.37 17.37 0 01.22 6.83c-.06.62-1.4 1.37-2.28 1.61-6 1.59-10.63 5.47-15 9.58-5.91 5.61-11.51 11.54-17.35 17.22-1.87 1.82-2.13 3.38-.69 5.64 9.43 14.94 18.79 29.84 28.26 44.71a21.2 21.2 0 009 8.38 15.75 15.75 0 008.72 1.43c7.55-.95 10.83-4.06 10.89-11.62q.22-31.66 0-63.34c-.06-7.31-3-10.41-10.27-11.79-1.47-.28-3.3-.22-3.39-2.18a38.25 38.25 0 01.51-6.83c0-.31 1.09-.61 1.71-.69a22.87 22.87 0 013-.09c17.8 0 35.6-.26 53.39 0 22 .37 38.25 10.63 47.41 30.63 7 15.21 6.88 31.25.32 46.55-7.25 17-21.4 25.24-39.26 27.61a86.83 86.83 0 01-10.94.66c-13.68.11-27.32.07-40.96.07zm24.2-57.39c0 8.48-.11 17 .05 25.44a87.86 87.86 0 001.07 12.87c.73 4.33 3.62 7 8 7.83a24.8 24.8 0 005.93.57c11.1-.67 19.3-6 23.87-16.14 7.29-16.17 7.29-32.65.27-48.83-3.72-8.57-10.32-14.8-19.69-17-4.64-1.1-9.54-1.24-14.34-1.55s-5.13.2-5.15 4.91c-.03 10.62 0 21.26-.01 31.9zm-158.49-34.76v12.48c0 1.62.23 3.38-2.15 3.83-3.43.65-5.88-.05-6.86-2.24-.48-1.06-.75-2.21-1.22-3.27-3.64-8.38-9.59-14-19-14.86-9.58-.92-17.24 2.65-22.77 10.57a22.85 22.85 0 00-2.45 4.33c-7.84 18.91-7.89 37.88.23 56.67 3.42 7.92 9.5 13.09 18.27 14.67 10.85 2 20.33-2.62 25.34-12.41 1-1.91 1.58-4 2.47-6 .58-1.3 1.2-3.41 2.1-3.58a23.34 23.34 0 017.36.13c.48.06 1.08 1.62 1.09 2.5.09 7 0 14 0 20.95a3.72 3.72 0 01-2.64 3.77c-16.5 6.69-33.32 10.31-51.07 5.51-13.11-3.54-23.11-11.28-29.06-23.32-10.25-20.78-10.3-41.86 1.51-62 9.25-15.79 23.56-24.05 42.09-24a182.58 182.58 0 0120.38 1.23c4.52.51 8.94.84 13.35-.32 2.35-.62 3 .34 3 2.44v13zm215.04-139.29a16 16 0 01-2.1-1.19c-3.07-2.54-6.13-5.1-9.14-7.71a5.17 5.17 0 01-.83-1.66c.56-.11 1.28-.51 1.64-.29 2.74 1.65 4.36 0 5.91-1.89 4.14-5 8.24-10 12.4-15 1.43-1.71 2.07-3.36.49-5.35-.33-.42-.27-1.15-.39-1.74.71.11 1.61 0 2.11.39 3.25 2.58 6.43 5.26 9.59 8A1.57 1.57 0 01452 85c-.07.28-.86.72-1 .61-3.45-2.13-5.16.36-7 2.58-4 4.73-4 4.73 1 8.81.25.22.5.44.76.64 6.18 4.8 4.84 6 10.92-1.37 1.61-2 2-3.75.12-5.73a1.27 1.27 0 01.2-1.24 1.35 1.35 0 011.29-.06q5.22 4.24 10.33 8.62c.3.25.26.88.38 1.34-.54.1-1.23.47-1.59.26-2.43-1.38-4-.36-5.55 1.55q-6.1 7.58-12.37 15c-1.66 2-2.67 3.84-.47 6.09a1.3 1.3 0 010 1.27 1.35 1.35 0 01-1.29.17q-5.24-4.22-10.35-8.58c-.24-.21-.2-.86-.12-1.27 0-.15.66-.38.86-.27 3.24 1.75 4.85-.5 6.56-2.59 6.1-7.46 6.06-5.9-.87-11.57-5.26-4.3-5.28-4.34-9.75 1.09-1.9 2.31-5.13 4.44-1.75 8 .15.22-.25 1-.43 1.77zM166.71 59.2l-1.94-.86c.38-.49.67-1.14 1.16-1.42q5.41-3.09 10.92-6c.42-.22 1.11.07 1.67.12-.1.46-.05 1.09-.34 1.34-2.28 2-1.57 4-.32 6.23q4.69 8.23 9.18 16.57c1.22 2.28 2.59 3.86 5.47 2.94.33-.11.84.32 1.26.49-.18.42-.25 1-.57 1.23q-5.62 3.2-11.33 6.25c-.35.19-.92 0-1.39 0 .07-.57-.07-1.38.24-1.65 2-1.66 1.63-3.4.43-5.28-1.59-2.51-3.15-5-4.72-7.55-2.67 1.14-5.35 2.27-8 3.43-.76.33-1.46.8-2.21 1.14-2.13 1-2.5 2.47-1.35 4.45 1 1.72 2 3.47 3 5.18 1.2 2 2.26 4.29 5.36 3a1.28 1.28 0 011.15.58 1.36 1.36 0 01-.47 1.25q-5.62 3.18-11.35 6.2a1.37 1.37 0 01-1.29-.16 1.27 1.27 0 01.05-1.25c2.54-2.17 1.53-4.36.22-6.66-3-5.35-6-10.72-8.95-16.13-1.2-2.22-2.5-4-5.43-3-.4.13-.92-.15-1.38-.23.24-.53.33-1.31.74-1.54 3.6-2.07 7.24-4.08 10.92-6 .43-.22 1.19.16 1.79.26-.15.45-.16 1.05-.47 1.32-2.74 2.38-.83 4.47.36 6.59 3.11 5.54 3.12 5.54 8.55 2.64a10.32 10.32 0 001.3-.73c1.84-1.34 3.66-2.7 5.49-4.06-1.47-2.75-2.8-5.58-4.48-8.2-.46-.71-1.93-.76-2.94-1.12zM58.47 168.5c-.86 2.38 0 3.74 1.64 4.56 2.49 1.24 5.08 2.3 7.63 3.43-.31-2.52-.55-5.05-1-7.56a19.72 19.72 0 00-1.07-3.84c-1.07-2.84-1.54-3-4.7-1.74a8 8 0 01-1.31.28c-.08-.6-.43-1.34-.2-1.78q2.74-5.31 5.73-10.5c.23-.4 1.09-.46 1.65-.67.16.58.56 1.22.44 1.74-1.13 4.81 1 9.14 1.91 13.66a2.63 2.63 0 003.23 2.34c5.91-.88 11.84-1.69 17.71-2.77 1.36-.25 2.52-1.49 3.82-2.19.36-.19 1-.3 1.28-.1a1.41 1.41 0 01.33 1.29q-3.19 6.19-6.54 12.32a1.32 1.32 0 01-1.2.44 1.4 1.4 0 01-.61-1.19c.42-2.25-.85-2.62-2.6-2.39-3.46.46-6.93.87-10.36 1.51-2.08.4-3 2.4-1.5 3.61a43.75 43.75 0 008.48 4.85c.49.24 1.6-.87 2.45-1.31.64-.32 1.32-.55 2-.83 0 .63.23 1.37 0 1.85-2 3.83-4.07 7.62-6.21 11.38-.23.39-1 .44-1.59.65-.11-.45-.46-1-.31-1.34 1.33-2.95-.48-4.29-2.69-5.47l-16.72-8.92c-2.16-1.15-4.28-2.06-6.17.5-.23.31-.84.34-1.27.5-.17-.58-.65-1.32-.45-1.71q2.82-5.55 5.88-11c.34-.6 1.17-.93 1.77-1.38zm52.6 281.84a3.66 3.66 0 00-.82-1.25c-.21-.15-1 .17-1.29.48-3.49 3.32-7 6.67-10.4 10.05a3.06 3.06 0 00-.28 4.47c.37.5.18 1.41.25 2.13a6.6 6.6 0 01-2.13-.89c-2.16-2.06-4.26-4.21-6.28-6.4-.32-.35-.16-1.13-.22-1.71.46 0 1.07-.3 1.37-.1 3.12 2.1 5-.19 6.85-2 4.75-4.65 9.32-9.49 14.12-14.09 1.26-1.19 2.29-3.71 4.85-2.16 2.24 1.36 2.72 2.82 2.07 6-1.5 7.33-3 14.65-4.54 22a26.6 26.6 0 00-.52 2.94c0 .45.17 1.27.38 1.31a2.22 2.22 0 001.72-.26c2.82-2.58 5.57-5.23 8.32-7.89 1.08-1 2.07-2.17 3.15-3.2 1.83-1.73 3.13-3.51 1.16-6-.23-.29 0-.89-.05-1.35.58.07 1.36-.08 1.7.24 2.29 2.16 4.52 4.41 6.71 6.68.28.29.23.9.33 1.36-.56.09-1.33.46-1.64.22-2.14-1.66-3.72-.54-5.23.94q-7.47 7.33-14.92 14.7c-1.3 1.29-1.88 2.66-.81 4.45.32.54.09 1.41.12 2.13a8.75 8.75 0 01-2.09-1c-6.89-5.86-6.88-5.87-5.1-14.78l3-14.66c.08-.7.15-1.35.22-2.36zm337.64 2.1q8.34 1.43 16.7 2.85c3.11.52 6.22 1 9.34 1.49a6.22 6.22 0 001.91-.32c-.21-.59-.24-1.35-.64-1.75q-6-6-12.11-11.82a3.62 3.62 0 00-5-.41c-.37.24-1.15-.14-1.74-.24.14-.46.14-1 .44-1.35q3.24-3.43 6.62-6.76c.28-.28.88-.24 1.34-.35.09.45.42 1.05.24 1.32-1.83 2.86-.09 4.57 1.81 6.38 4.34 4.11 8.62 8.29 12.91 12.46 1.85 1.8 3.66 3.56 6.43 1.5.26-.19.87.09 1.32.15-.08.58.05 1.35-.28 1.71a45 45 0 01-6 6 6.69 6.69 0 01-4.58.74c-7.06-1.11-14.07-2.48-21.11-3.69a8.39 8.39 0 00-2.35.26 7.79 7.79 0 001.06 2.05c3.05 3.05 6.2 6 9.27 9.05 1.82 1.79 3.62 3 6 .92a1.25 1.25 0 011.25.1 1.29 1.29 0 01.12 1.28q-3.37 3.67-6.88 7.19a1.44 1.44 0 01-1.34.21 1.31 1.31 0 01-.24-1.27c1.64-2.63.17-4.26-1.64-6q-7.93-7.56-15.71-15.29c-1-1-3-1.73-2-3.5s2.46-3.3 4.86-2.91zM345.77 67.06c-6.11-1.44-12.24-2.85-18.34-4.35-.5-.12-.86-.81-1.28-1.24.37-.25.74-.71 1.13-.73 2.78-.12 3.5-2.11 4-4.3q2.22-9.44 4.43-18.87c.53-2.26.64-4.3-2.08-5.35-.38-.14-.5-1-.74-1.53.46-.12 1-.44 1.37-.35 5.82 1.3 11.68 2.45 17.4 4.08a7.38 7.38 0 015.4 6.58 6.89 6.89 0 01-4 7.38c-2.44 1.22-2.39 2-.49 3.78 3.17 2.87 3 6.48 1.41 10.05-1.52 3.37-4.43 4.7-8.21 4.85zm2.23-9.72c-.08-4.65-2-6.85-5.31-7.6-1.59-.36-2.65.12-3 1.66-.67 2.56-1.19 5.16-1.81 7.73-.46 1.92-.47 3.62 1.65 4.63s4.68.88 5.91-.92a30.62 30.62 0 002.56-5.5zm2.09-17.15a11 11 0 00-.25-1.14c-.61-2-2.92-3.73-4.85-3.53-2.17.23-2.31 2-2.62 3.63-.35 1.78-.73 3.55-1.08 5.32-.42 2.14.67 3 2.66 3.19 3.68.34 6.26-2.66 6.12-7.47zM40.55 285.24h-6c-2.58.06-5.06.31-5.72 3.56-.06.3-.67.49-1 .74-.25-.38-.69-.76-.72-1.16-.16-3-.29-6-.3-8.95 0-.52.56-1.05.86-1.58.34.28.9.51 1 .86.84 3.34 3.53 3.11 6 3.06 6.63-.13 13.27-.37 19.91-.56h1c1.57.05 3.44-.67 4.28 1.46a5 5 0 01-2 5.64c-4 3-8.08 5.82-12.11 8.74q-4.44 3.23-8.83 6.5a4.43 4.43 0 00-.8 1.19c.53.34 1.06 1 1.58 1 6-.13 11.94-.34 17.9-.57 2.4-.17 2.65-2.17 3.4-3.85.11-.26.59-.63.7-.57.38.19 1 .55 1 .86.11 3.31.15 6.63.13 9.94 0 .35-.52.7-.79 1-.33-.3-.85-.55-1-.91-.68-2.72-2.72-3-5-3q-9.7.33-19.41.62c-2.13.06-3.92.57-4.7 2.89-.16.47-.88.75-1.34 1.11A6.92 6.92 0 0128 312c-1.7-8.38-1.32-9.4 5.66-14.51 4.68-3.43 9.44-6.77 14.12-10.22.55-.41.77-1.28 1.15-1.93a9.74 9.74 0 00-1.88-.41c-2.16-.05-4.32 0-6.48 0zM258 59.39c0 2.07-3 3.51-5.3 2.33a12.37 12.37 0 01-2.62-2.26c-5.59-5.47-11.14-11-16.75-16.41a9.37 9.37 0 00-2.09-1.16 7.63 7.63 0 00-.56 2.64c.89 5.08 2 10.12 2.88 15.19.47 2.54 2 3.7 4.47 3.8.36 0 .71.51 1.06.79-.31.33-.57.87-.93 1-3.24.7-6.5 1.35-9.76 1.93-.4.07-.88-.31-1.32-.48.17-.42.23-1.1.52-1.22 3.12-1.29 2.73-3.7 2.22-6.28q-1.74-8.8-3.32-17.64c-.47-2.61-1.1-4.94-4.41-5.07-.32 0-.61-.57-.92-.88.33-.32.62-.85 1-.94a60.76 60.76 0 018.77-1.75c1.21-.09 2.74 1 3.74 2 4.57 4.36 9 8.87 13.48 13.32a16.76 16.76 0 002.16 2.06 2.31 2.31 0 001.72.22c.22-.05.44-.87.37-1.3-.39-2.46-.84-4.91-1.31-7.36-.34-1.8-.79-3.57-1.12-5.37-.46-2.48-1.24-4.55-4.37-4.36a1.31 1.31 0 01-1-.73 1.34 1.34 0 01.68-1.09c3.24-.74 6.48-1.41 9.74-2a1.35 1.35 0 011.15.62 1.27 1.27 0 01-.51 1.15c-3.5 1.48-2.47 4.32-2 6.85 1.23 6.7 2.61 13.36 3.93 20a50 50 0 00.4 2.4zm252.12 364.06c-.32 10.15-8.88 18.6-18.54 18.3a18.06 18.06 0 01-17.48-18.57c.33-10.24 8.73-18.54 18.52-18.3a18.12 18.12 0 0117.5 18.57zm-21.22-12.88c-5.13-.13-7.87 1.79-9.73 5a9 9 0 00.38 10.3 26 26 0 0015.9 10.28c3.61.8 6.48-.89 8.66-3.67s3.57-6.12 1.7-9.68c-3.81-7.28-10.22-10.92-16.91-12.23zM49.43 357.1c-10.43.09-18.26-8-18.18-18.81.07-10.21 7.31-17.34 17.7-17.43s18.19 8 18.16 18.82c-.02 10.15-7.32 17.32-17.68 17.42zM47 350.21a25.61 25.61 0 0013-4.27 9 9 0 004-9.94c-.89-4.06-3.26-6.92-7.49-7.66a24.42 24.42 0 00-18.44 3.89c-3.67 2.46-4.75 6.24-3.53 10.48 1.46 5.18 5.1 7.55 12.46 7.5zm479.48-136.96c10.21.05 18 8.35 18.07 19.32.09 9.42-8.06 17-18.41 17.07-9.88.09-17.72-8.37-17.66-19 .07-9.98 7.81-17.45 18-17.39zm3.4 6.84c-5.06.19-10.2 1.41-14.55 4.75a9 9 0 00-3.51 10.16c1.09 4 3.5 6.76 7.75 7.39a23.71 23.71 0 0018.3-4.51 9.56 9.56 0 001.85-13.32c-2.31-3.36-5.66-4.43-9.84-4.47zM303.12 40.43a18 18 0 012.83 0 9.79 9.79 0 012.12.85 22.39 22.39 0 00-1.44 1.78c-1.79 2.76-3.72 5.46-5.25 8.37-1.12 2.13 1.87 5.73 4.89 6.14.64.08 1.31-.12 2-.1s1.62.15 2.43.24a9.7 9.7 0 01-1.55 1.75c-3.31 2.29-6.68 1.79-9.75-.35-2-1.4-3.71-1.81-5.77-.27a8.8 8.8 0 01-2.78 1.16c-4.59 1.33-9.24-.42-11.18-4.16a10 10 0 012.5-12.18 15.17 15.17 0 012-1.42 2.27 2.27 0 001-3.34 9.75 9.75 0 01-.54-1.39c-2-6.43 2.23-10.87 8.9-9.34 2.12.48 4.21 1.27 4.78 3.77a6.09 6.09 0 01-2.05 6.28c-1.1 1-3.26 1.93-3.2 2.78.1 1.64 1.44 3.19 2.28 4.77a2.93 2.93 0 00.58.81c1.07 1 1.3 3.59 3.59 2.31 1.72-1 1.88-4 .6-5.8-.18-.26-.56-.38-.76-.64-.37-.48-.68-1-1-1.51a8.6 8.6 0 012.1-.77 13.48 13.48 0 012.67.26zM291.51 56.7c.42-.25 1.88-.65 2.44-1.59.37-.62-.4-2.11-.94-3-1.35-2.28-2.82-4.49-4.33-6.68-1.15-1.67-2.24-1.66-3.49-.07a6.16 6.16 0 00-.67 7 7 7 0 006.99 4.34zm3.4-23.17a3.1 3.1 0 00-3.4-3.32 3 3 0 00-2.69 3.45c.15 2.27 1.78 4.66 3.05 4.47 1.59-.23 3.07-2.47 3.04-4.6zm-71.13 33.74c-.58.63-1.15 1.76-2 2.09-7.62 2.88-15.29 5.63-23 8.37-.39.14-.92-.09-1.38-.15.12-.55.06-1.41.4-1.61 2.65-1.64 2.1-3.8 1.24-6.12Q195.79 61 192.62 52c-.79-2.22-1.91-3.86-4.64-3.59-.49.05-1-.49-1.55-.75.44-.42.81-1 1.33-1.23 6.54-2.44 13.09-4.87 19.68-7.17 3.19-1.12 3.46-.89 4.82 2.24a5.67 5.67 0 01.48 1.42c.12.9.14 1.81.2 2.73a14.9 14.9 0 01-2.35-1.31c-3-2.43-9.13-2.24-11.82.56a2.64 2.64 0 00-.43 2.2 43.87 43.87 0 002.13 6.12c.43 1 1.48 2.45 2.06 2.37a6.83 6.83 0 003.76-1.93c.9-.95 1.21-2.47 1.78-3.74.88 1.53 1.83 3 2.61 4.61a20.59 20.59 0 011.4 3.72 4.87 4.87 0 01-.21 1.82c-.58-.12-1.36-.06-1.71-.41-1.37-1.39-2.79-2.31-4.86-1.73-1.5.42-2.47 1.17-1.93 2.82a78.46 78.46 0 003.25 8.88 3.69 3.69 0 003.08 1.68 25.3 25.3 0 007.74-3.21c1.24-.85 1.63-3.08 2.18-4.75a21.91 21.91 0 00.23-3c.07-.36.6-.67 1-.91.07 0 .56.34.64.6.72 2.27 1.41 4.49 2.29 7.23zM387 62.22v11.45c0 2.52-.1 5 2.29 6.74.3.21.3.83.44 1.26-.61.14-1.33.56-1.81.38-3.86-1.52-7.68-3.13-11.48-4.78a1.37 1.37 0 01-.62-1.15 1.24 1.24 0 011-.66c1.93.35 3.21 0 3.53-2.27.53-3.68-.05-5.93-2.11-7-1.19-.58-2.45-1-3.68-1.51-4.17-1.64-4.56-1.47-7.5 2.12-1.44 1.76-2.4 3.28.16 4.86.27.16.24.81.34 1.24-.45.11-1 .44-1.35.31q-4.41-1.69-8.74-3.57a1.28 1.28 0 01-.48-1.16 1.42 1.42 0 011.15-.66c3.06.25 4.89-1.71 6.73-3.64q7.23-7.55 14.41-15.14a26.2 26.2 0 013.16-3.16c.83-.6 2.24-1.25 2.95-.93s1.2 1.77 1.52 2.81a8.84 8.84 0 010 2.47v11.99zm-6.26-2.8c-.41-1.73-.73-3.12-1.06-4.5-1.29.84-2.65 1.6-3.85 2.55a5.49 5.49 0 00-1.85 2.26c-.24.7 0 2.18.45 2.4a33.87 33.87 0 005 1.6c.42-1.5.87-2.99 1.26-4.31zM497.88 197c-.11-1.13.08-2.4-.37-3.38-1.41-3.07-1.5-3 1.25-4.13a2.64 2.64 0 01.47-.17l5.53-1c-.86 1.36-1.82 2.67-2.56 4.09-1.81 3.46-2.33 7.09.24 10.3A7.32 7.32 0 00507 205a4.19 4.19 0 004.41-3.36 42.17 42.17 0 001-5.86c.33-2.46.61-4.93.82-7.41.32-3.87 4.23-6.8 7.92-7.12a8.75 8.75 0 019.07 4.9c1 2 1.35 4.41 1.89 6.65.19.79-.1 1.71.14 2.47.37 1.12 1.68 2.86 1.43 3.09a16.47 16.47 0 01-3.84 2.15 1.69 1.69 0 01-.46.2l-3.2.57a14.7 14.7 0 011.35-2.89 8.59 8.59 0 001.1-8.93c-.81-2-2-3.47-4.34-3.45s-3.46 1.77-4 3.8a34.36 34.36 0 00-.61 4.44c-.27 2.3-.39 4.63-.77 6.92a10.16 10.16 0 01-8.43 8.69 10 10 0 01-10.61-4.9c-1.31-2.39-1.9-5.18-2.82-7.79zM117.8 96.67a18.67 18.67 0 0112.64-17.39c1.38-.49 3.56-.89 3.86-1.83 1.07-3.34 2.11-2 3.51-.4 1.64 1.88 3.37 3.67 5 5.56a1.38 1.38 0 01.19 1.28 1.51 1.51 0 01-1.3.45c-1.27-.36-2.48-.91-3.73-1.36-4.67-1.68-8.93-1-12.32 2.7a9.49 9.49 0 00-1.37 11.59 42.41 42.41 0 006.76 9.11c3 3.15 7 4.65 11.39 3 4.56-1.69 7.07-5.35 8.1-10 .28-1.28.12-2.66.35-4 .1-.54.69-1 1.05-1.49.52.5 1.41.93 1.51 1.51.74 4.17-.63 7.9-2.9 11.29-4.28 6.4-12.81 9.58-19.65 7.46a18.51 18.51 0 01-13.09-17.48zm391.56 249.75c.76-4.1 1.39-7.7 2.12-11.28a5.3 5.3 0 011-1.59c.41.39 1.11.74 1.18 1.18.37 2.27 1.88 2.54 3.69 2.25 2.23-.37 4.88-.18 5.69-3.08a39.37 39.37 0 001.33-6.33c.36-3.34-2.81-3.71-4.73-5.05-1.73-1.22-3.07-.6-4 1.31-.18.38-1 .46-1.54.67a3.85 3.85 0 01-.33-1.39 46.05 46.05 0 011.18-5.86 22.87 22.87 0 011.83-3.76 12.78 12.78 0 001.53 2.91 21.56 21.56 0 004 3.64c6.52 4.3 13.13 8.48 19.7 12.72a28.62 28.62 0 012.85 2c1.42 1.17 1 2.44-.25 3.31a7.32 7.32 0 01-2.81.84c-8.15 1.64-16.31 3.2-24.45 4.9-2.2.46-4.72.5-5.84 3.17-.19.47-.95.7-1.46 1.05-.25-.66-.56-1.33-.69-1.61zM528 335c1.91-.42 3.85-.75 5.72-1.31 1.28-.38 1.38-1.41.35-2.16-1.71-1.25-3.55-2.34-5.35-3.46-1.4-.87-2.17-.1-2.52 1.18a20 20 0 00-.55 3.38c-.13 1.69.63 2.5 2.35 2.37zM90.38 407.54l.29-3.18a15.68 15.68 0 012.85 2.43c2 2.67 3.75 5.48 5.54 8.27a1.37 1.37 0 010 1.29 1.3 1.3 0 01-1.25.11c-2.3-1.92-3.6-.5-4.75 1.36-1.27 2.05-3.36 4-1 6.61a26.46 26.46 0 012 2.86c2.25 3.26 2.65 3.4 6.6 2.33 3.24-.88 3.22-.88 2.9-4.66a1.64 1.64 0 01.42-1.26 1.31 1.31 0 011.23.31q3 4 5.79 8.1a1.26 1.26 0 010 1.24 1.37 1.37 0 01-1.31.17c-2.89-2.39-6-1.25-9-.57-7 1.55-13.91 3.21-20.86 4.83a8 8 0 01-2.42.54c-1.2-.12-2.65-.27-3.43-1-.43-.41 0-2.22.54-3.09 4.61-7.29 9.35-14.5 14-21.77 1-1.5 1.74-3.12 2.6-4.68zm-1.59 16l-1.73 3.38-2.85 5.59c2-.17 4.09-.27 6.12-.55 1.25-.17 3.06-.42 2.38-2.24s-1.99-3.21-3.92-6.17zm407.76-294.31c-.67 1.5-1.1 2.75-1.75 3.87-3.83 6.61-7.78 13.16-11.55 19.8-1.48 2.62-4.18 5.08-2 8.61.1.15-.27.81-.37.8-.6-.08-1.42-.09-1.73-.48-2.69-3.38-5.3-6.82-7.88-10.28a1.26 1.26 0 01.12-1.25 1.36 1.36 0 011.31-.05c1.7 1.38 3.31 1.8 4.44-.5s3.89-4.14 1.35-7.08c-.76-.88-1.41-1.85-2.12-2.77-2.83-3.68-3-3.7-7.49-2.08-2.09.76-3.79 1.58-2.33 4.26.18.33-.07.89-.12 1.34-.56-.14-1.34-.09-1.64-.45q-2.88-3.43-5.55-7c-.32-.43-.21-1.17-.3-1.77.58 0 1.37-.31 1.71 0 2.28 1.86 4.63 1.19 7.09.5 7.68-2.15 15.38-4.23 23.07-6.31a10.05 10.05 0 013.4-.66c.79 0 1.48.89 2.34 1.5zm-15.72 13a27.28 27.28 0 002.94-3.48c.88-1.54 1.48-3.24 2.21-4.88-1.73.17-3.47.25-5.18.53a10.44 10.44 0 00-2.79 1c-.36.18-.85.91-.76 1.08 1.02 1.76 2.14 3.52 3.58 5.75zM50.8 259.51c0 3.18 4.13 6.95 6.7 6.45.73-.14 1.24-1.3 1.9-1.94a14.07 14.07 0 011.39-1c.17.43.52.89.48 1.3-.31 3-.66 5.92-1.12 8.86-.07.48-.78.86-1.2 1.29-.3-.35-.81-.67-.87-1.06-.47-2.84-2.72-4-4.87-5.27-6.89-4-13.81-7.91-20.71-11.85a17.11 17.11 0 01-2.56-1.52 1.92 1.92 0 01.12-3.33 9.75 9.75 0 013.2-1.27c8-2.09 16.06-4.06 24.05-6.24a22.28 22.28 0 004.69-2.49 21.67 21.67 0 002.08-1.52 9.38 9.38 0 01.32 2.37c-.44 3.62-1 7.23-1.53 10.83-.06.41-.5.77-.76 1.15-.36-.28-1-.51-1-.84-.47-2.74-2.25-3-4.43-2.39s-5.07.69-5.2 4.19a30.12 30.12 0 01-.68 4.28zm-1.7-3c.1-2.83-.18-3.13-3-2.68a45 45 0 00-5.22 1.17c-1.32.39-1.44 1.35-.34 2.08 1.77 1.16 3.64 2.16 5.52 3.16s2.71.1 2.86-1.79c.08-.68.08-1.33.18-1.98zm493.8 32.64a2.7 2.7 0 01-.49 0l-3.67-.52c.9-.81 1.79-1.63 2.69-2.43a28.09 28.09 0 004-3.62c4.33-5.69 2.56-12.93-4-15.79a19.47 19.47 0 00-18.67 1.23c-7.07 4.34-5.69 12.36-1.13 17.71.95 1.12 2.34 1.85 3.38 2.9a1.78 1.78 0 01.32 1.68 1.8 1.8 0 01-1.69.43c-1.87-1.32-4-2.53-5.35-4.3-5-6.59-4.36-17.58 1.18-23.58 4.9-5.31 15.42-6.61 22.25-2.76 6.39 3.61 10 12.06 8.6 19.8-.42 2.36-3 4.73-.39 7.32 0 0-.7 1.09-1.16 1.18-2 .37-3.94.55-5.92.79zm-36.57-120.37v5c-.11 4.25-2.11 7.42-6.05 8.9s-7.89 1.08-11.19-1.94a11.36 11.36 0 01-4.06-8.26 12 12 0 00-.7-3.85 10.46 10.46 0 00-1.85-2.42c.93-.66 1.85-1.35 2.81-2a7.41 7.41 0 011.78-.89c1.19-.4 2.42-.69 3.63-1a28.12 28.12 0 01-1.35 3.41c-2.26 4.18-2 8.21.65 11.12a5.44 5.44 0 005.83 1.81 4.8 4.8 0 003.58-4.35 47.15 47.15 0 00.06-5.45c0-2.65-.39-5.36 0-7.94 1.11-7 8.77-9.94 14.5-5.69a12.72 12.72 0 014.83 8.43c.28 1.55-.25 3.43 2 4.11.14 0 .18 1.42-.1 1.6-1.81 1.16-3.71 2.19-5.63 3.17a1.31 1.31 0 01-1.27-.26 1.42 1.42 0 01.12-1.32c1.65-2 2.7-4.33 2-6.92a11.76 11.76 0 00-2.3-4.83c-2.37-2.7-6.07-1.83-6.9 1.67-.59 2.54-.42 5.26-.58 7.91zM89.07 123.39c.89 2.13 1.65 3.76 2.25 5.45a5.08 5.08 0 01-.1 1.8c-.58-.18-1.34-.18-1.72-.56-6.68-6.74-6.71-4.24-1-10.84 4.26-4.89 8.63-9.68 13-14.46 2.22-2.43 2.29-2.42 4.87-.53 1.48 1.07 2.88 2.25 4.25 3.46.28.26.46 1.16.32 1.27a2.26 2.26 0 01-1.6.56c-1.44-.33-2.84-1.25-4.24-1.22a9.41 9.41 0 00-4.61 1.36c-2.43 1.49-2.49 2.69-.33 4.68 5.25 4.84 10.61 9.57 15.93 14.34 1.61 1.46 3.25 2.3 5.3.68.38-.3 1.14-.11 1.72-.15-.15.59-.14 1.32-.49 1.73q-4.09 4.69-8.34 9.26c-.35.37-1.12.35-1.69.51 0-.59-.14-1.29.12-1.76 1.2-2.23.25-3.71-1.42-5.18-5-4.4-9.86-8.93-14.85-13.32-1.14-1-2.29-3.15-4.08-1.75-1.36 1.12-2.2 3.07-3.29 4.67zm-21.42 288.7c-.24 0 .27-.15.74 0a2 2 0 011.07.75.89.89 0 01-.28.84 73.09 73.09 0 01-7.33 2.92c-.51.15-1.75-.88-2.13-1.62-3.73-7.43-7.33-14.91-11-22.36-.74-1.49-.46-2.53 1-3.31a22.22 22.22 0 012.64-1.4c1.31-.5 3.57-1.54 3.89-1.13 1.41 1.76-1.17 2.16-1.7 3.38-.45 1.06-1.46 2.13-1.36 3.11a13.2 13.2 0 001.7 5.41c.24.4 2.73-.25 4-.85 5.7-2.72 11.3-5.66 17-8.37 2.45-1.17 4.44-2.36 3.51-5.58a.95.95 0 011.78-.63q3.14 6.23 6.12 12.52a1.32 1.32 0 01-.48 1.19 1.33 1.33 0 01-1.28-.31c-1.67-3.11-3.84-2.33-6.3-1.08-6.07 3.11-12.21 6.05-18.29 9.14-2.79 1.41-2.93 2.42-1 4.94 1.73 2.35 4.05 3.12 7.7 2.44zM427.94 74.33c-.42-1.56-.5-3.34-1.33-4.63-2.25-3.46-4.45-4.51-6.76 0-2.73 5.3-6 10.33-9 15.5-1.46 2.53-3.65 5.09-.27 7.83.17.14.2.79.09.85-.39.22-1 .55-1.29.4-4-2.27-8-4.6-12-7-.21-.13-.4-.71-.29-.85.25-.34.82-.85 1-.75 4.08 1.8 5.25-1.38 6.75-3.92 3.12-5.29 6.24-10.57 9.28-15.9 1.88-3.31.91-5.11-2.88-5.78-2.81-.49-4.69 1.14-6.69 2.66-.37.28-1.12.06-1.7.07a4.84 4.84 0 01.09-1.38 5.73 5.73 0 01.78-1.26c4.13-6.24 2.86-5.92 9.32-2.23 5.76 3.28 11.47 6.65 17.16 10.06 3 1.83 3 1.9 1.41 5a11.42 11.42 0 01-1.21 2.17c-.77.92-1.71 1.71-2.57 2.55-.18-1.09-.35-2.18-.53-3.26zM535.4 365.31c0-2.8-1.77-4.52-3.74-6.15-.43-.36-.57-1.07-.84-1.62a4.68 4.68 0 011.8-.37 15.89 15.89 0 012.77 1.08c4.44 1.94 4.5 2 2.92 6.56-2.38 6.9-4.93 13.76-7.26 20.68-.73 2.19-1.76 3-4 2.14-1.7-.66-3.48-1.1-5.19-1.74a1.36 1.36 0 01-.74-1.08c0-.32.59-.78 1-.84 1-.16 2.12.15 2.94-.25a14.63 14.63 0 004.87-3.09c2.13-2.45 1.57-4-1.56-5.15-6.57-2.36-13.19-4.55-19.76-6.87-2.41-.85-4.2-.4-5.44 1.94-.17.32-.75.42-1.14.62-.21-.42-.7-.93-.6-1.24 1.49-4.39 3-8.76 4.62-13.12.09-.23.63-.55.74-.49.36.24.92.67.87.95-.54 3.6 1.94 4.46 4.59 5.37 6 2 11.89 4.23 17.85 6.3 3.81 1.33 5.32.27 5.3-3.63zM69.34 216c.14-3.13-1.64-5-3.84-6.7a6.57 6.57 0 01-1.16-1.93c.74-.11 1.48-.24 2.22-.33a1.53 1.53 0 01.48.14c6.88 1.86 6.86 1.86 4.86 8.58-1.75 5.89-3.43 11.81-5.17 17.7a19.31 19.31 0 01-1.09 2.76 1 1 0 01-.82.37c-.23 0-.63-.41-.61-.6.51-4.55-3-4.93-6-5.81-5.27-1.52-10.57-2.94-15.8-4.56-2.57-.8-4.86-1.4-6.46 1.55a1.33 1.33 0 01-1.18.55 1.29 1.29 0 01-.6-1.15c1.23-4.3 2.54-8.58 3.86-12.86.08-.26.55-.67.68-.61.38.16 1 .53 1 .79-.27 3.61 2.34 4.34 5 5.11 5.9 1.72 11.77 3.57 17.7 5.2 3.65 1 4.3.58 5.54-2.94.55-1.75.92-3.54 1.39-5.26zm11.31-83.22c-1.06 2.4.21 3.58 1.59 4.57 5.67 4.08 11.39 8.08 17.08 12.14 1.91 1.36 3.64 1.32 5.38-.32.26-.25.87-.14 1.33-.19 0 .57.3 1.32 0 1.7-2.43 3.57-4.94 7.1-7.47 10.6-.24.33-.83.4-1.26.59-.19-.53-.69-1.24-.51-1.57 1.59-2.91-.35-4.29-2.32-5.69-5-3.56-10.07-7.07-15.05-10.68-2.18-1.58-4.24-2.72-6.63-.38a1.27 1.27 0 01-1.25 0 1.33 1.33 0 01-.17-1.29q3.51-5.14 7.16-10.21c.34-.48 1.05-.7 1.59-1zm437.98 274.03c.72-2.26-.22-3.41-1.65-4.12-6.69-3.33-13.42-6.59-20.15-9.85-1.8-.87-3.17-.25-4.29 1.32-.22.3-.85.32-1.29.46-.14-.56-.57-1.25-.38-1.65 1.8-3.92 3.69-7.81 5.62-11.67a1.36 1.36 0 011.16-.58 1.31 1.31 0 01.65 1.12c-1.1 3.54 1.31 4.73 3.82 5.92 5.55 2.65 11.1 5.29 16.62 8 2.11 1 4 1.63 5.73-.68.27-.38 1.08-.36 1.63-.53a4.62 4.62 0 010 1.81c-1.68 3.62-3.41 7.21-5.23 10.76-.32.61-1.17.94-1.78 1.4-.17-.7-.38-1.4-.46-1.71zM76.49 372.67c-.45.1-1 .4-1.45.28s-.72-.66-1-1.07a3.26 3.26 0 00-4.31-1.35c-6.71 2.39-13.43 4.76-20.13 7.19-1.82.67-3.14 1.81-2.89 4.09.05.46-.5 1-.78 1.49-.36-.3-.9-.53-1-.91q-2.29-6-4.44-12.13a1.35 1.35 0 01.37-1.24c.28-.19 1.15-.07 1.26.16 1.67 3.38 4.29 2.41 6.82 1.49 5.76-2.08 11.49-4.29 17.26-6.35 2.22-.79 3.94-1.77 3.7-4.52 0-.4.39-.83.6-1.25.4.23 1 .36 1.18.69 1.63 4.16 3.19 8.36 4.76 12.55a5.26 5.26 0 01.05.88zm132.05 162.2a15.46 15.46 0 01.37-2.29 4.67 4.67 0 00-1.71-5.31 19.15 19.15 0 01-2.73-2.89c-.19-.25.12-1.24.47-1.47a3.93 3.93 0 011.93-.39 7.48 7.48 0 007.19-5c1.35-3.2 2.38-3.24 3.56-.21 1.61 4.14 4.65 5.26 8.56 5.43 1.79.08 1.91 1 .85 2.24a3.57 3.57 0 01-.73.67c-3.11 2.11-4.36 4.87-3.09 8.58a3.3 3.3 0 01.12 2c-.13.41-.8.71-1.3.91-.23.09-.65-.15-.91-.34-3.33-2.44-6.58-2.37-10.13-.19-2.19 1.26-2.64.81-2.45-1.74zm159.39.31c.2 2.17-.09 2.4-2.06 1.63a4.63 4.63 0 01-.9-.42c-2.88-2-5.65-1.93-8.76-.2s-3.69 1.36-2.94-1.89c.88-3.77-.42-6.27-3.17-8.67-2.08-1.81-1.79-2.75.85-3 3.89-.32 6.37-1.92 7.83-5.66 1-2.55 2.17-2.57 3.15-.21a8.67 8.67 0 008.26 5.9c2.07.13 2.26.95 1.06 2.53-.1.13-.23.24-.33.37-3.48 4.2-3.48 4.2-2.99 9.62zM549.3 303.3c-.28 3.11-.48 5.59-.77 8.06 0 .42-.51.78-.78 1.17-.42-.38-1.19-.73-1.21-1.13-.17-2.85-2-3.54-4.41-3.7-6.63-.43-13.26-.89-19.89-1.26-2.1-.12-4 .22-4.55 2.84-.07.4-.85.65-1.3 1-.24-.41-.71-.83-.69-1.22.22-4.32.48-8.63.81-12.93 0-.36.58-.68.9-1 .32.32.87.61.94 1 .45 2.62 2.14 3.49 4.6 3.63 6.47.37 12.94.81 19.4 1.26 2.33.16 4.33-.1 5.13-2.79.14-.45.85-.73 1.3-1.09a4.88 4.88 0 01.5 1.36c.05 1.76.02 3.59.02 4.8zM443.36 182c-1.09 4.07-2.16 7.74-3 11.45a49.13 49.13 0 00-.64 5.71c1.7-.87 3.45-1.65 5.08-2.62s3-2.09 4.5-3.13c1-.7 2.17-1.43 2.82.17a2.55 2.55 0 01-.69 2.35c-4.26 3.18-8.59 6.27-13 9.22-.78.52-2.44.75-3 .28a3.83 3.83 0 01-.86-3.07 49.46 49.46 0 011.44-5.79c.74-2.89 1.49-5.79 2.17-8.7.11-.43 0-1.28-.2-1.34a2.32 2.32 0 00-1.76 0c-2.5 1.65-4.89 3.44-7.38 5.11-1 .67-2.1 2.14-3.29.28-1.09-1.71.49-2.37 1.49-3.1 4-2.93 8.09-5.83 12.2-8.65.73-.51 2.09-1.09 2.57-.76.76.59 1.11 1.81 1.55 2.59zM285.39 532.67a59.86 59.86 0 01-1.53 7.37 9.57 9.57 0 01-11.36 6.48c-.92-.21-2.36-1.24-2.34-1.85 0-1.49 1.31-1.27 2.6-1.14 4 .4 6.78-1.37 7.62-4.65.35-1.33.55-2.83-1.74-2.35a8 8 0 01-1 .21c-4.62.43-6.7-.45-7.95-3.35-1.45-3.36-.79-8 1.47-10.27s6.91-3 9.69-1.23a10.25 10.25 0 013.52 4.52c.77 1.76.68 3.87 1.02 6.26zm-4.5-3.92c-.07-3-1.52-4.63-4-4.55s-4.16 2.21-4.08 5.19 1.68 4.62 4.09 4.55 4.1-2.04 3.99-5.19zm8.21 6.04c.75-2.76 1.22-5.91 2.46-8.71a8.78 8.78 0 0110.37-4.87c1.22.31 2.95.57 2.53 2.36-.38 1.57-1.78.83-2.91.68-3.82-.54-6 .87-7.19 4.39-.74 2.29-.11 3.05 2.2 2.67.16 0 .32-.11.48-.14 4.77-.82 7.9.86 8.93 4.81a8.49 8.49 0 01-4.88 10.25c-3.78 1.44-8.58-.16-10.19-3.83-.97-2.2-1.15-4.74-1.8-7.61zm13.06 3.81c0-2.67-1.69-4.8-4-4.94s-4.49 2.29-4.47 5 1.76 4.81 4 5 4.45-2.26 4.47-5.06zm9.04-78.01c.6 3.22 1.21 6 1.56 8.77a2.84 2.84 0 01-1 2.38c-1.57.72-1.95-.7-2.18-1.84-1-5-2-10.08-2.81-15.15-.15-.93.34-2.53 1-2.88a3.61 3.61 0 013.09.58c3.69 2.82 7.22 5.84 10.85 8.74a10.27 10.27 0 002.16 1 7.67 7.67 0 00.62-2.64c-.37-3-1-5.88-1.41-8.83-.08-.58.54-1.74.94-1.79a3.14 3.14 0 012 .93c.32.26.34.91.43 1.4.88 4.73 1.81 9.45 2.56 14.19.15 1-.16 2.85-.67 3a4.67 4.67 0 01-3.61-.42c-2.32-1.56-4.39-3.51-6.56-5.31-1.41-1.15-2.78-2.37-4.26-3.42a7.33 7.33 0 00-2.2-.66zm-17.81 12.97c-.83 0-1.66.05-2.49 0-5.39-.33-9.16-3.69-9.86-8.77-.78-5.69 2-10.42 7.35-12 3.8-1.15 7.58-1.1 11 1.24.53.36.45 1.61.66 2.45a11.14 11.14 0 01-2.23.05c-.43-.08-.76-.63-1.2-.85-3.69-1.83-7.47-1.16-9.93 1.72a9.16 9.16 0 00-.73 10.25c1.83 2.85 6.31 4.32 9.74 3.3 1.59-.48 1.92-1.57 1.94-3 0-1.71-.82-2.38-2.42-2.38a6.77 6.77 0 01-2-.15 1.45 1.45 0 01-.9-1c0-.37.43-1.1.71-1.12 2.14-.12 4.29-.13 6.43-.12.3 0 .83.23.85.41.34 2.23.67 4.47.87 6.71.14 1.62-1 2.44-2.37 2.71-1.78.36-3.6.5-5.39.74zm-20.64-359.88v-1.49c-.19-7.33-1.18-7.43 7.54-7.4h2c6.7.33 9.76 3.37 9.91 9.84.14 6.15-3.18 9.94-9.37 10.62-2.13.23-4.28.27-6.41.52s-3-.65-3.16-2.73c-.16-3.13-.41-6.25-.63-9.38zm8.08-6.48c-3.78 0-4.67.85-4.69 4.66 0 2.64.1 5.29.27 7.94.21 3.21.76 3.61 4.08 3.22a18.35 18.35 0 002.44-.44c4.2-1.11 6.28-4.54 5.56-9.14-.63-4.03-3.38-6.27-7.66-6.24zm-67.35 348.54c-2.17-1-5.8-2.52-9.32-4.29a2.54 2.54 0 01-.61-2.38c2.42-5.08 5-10.09 7.53-15.11.61-1.2 1.41-1.74 2.77-1 2.73 1.56 5.65 2.83 8.23 4.6 3.76 2.59 4.76 6.61 3.15 11-1.78 4.89-5.54 7.6-11.75 7.18zm9-11.08c.14-3.43-4.79-8.31-7.83-7.77a3.08 3.08 0 00-1.8 1.49c-1.7 3-3.27 6.13-4.89 9.21-.59 1.12-.86 2.27.46 3 2.74 1.53 5.5 3.29 8.85 1.82s4.52-4.56 5.17-7.75zm-52.42-298.47c2.71-.1 5.59 2.06 5.17 4.87-.68 4.48 1.78 5.44 5.13 6.07a8.76 8.76 0 011.92.51c.83.38 1.6.91 2.39 1.37a12.74 12.74 0 01-2.69 2 4.34 4.34 0 01-2.41-.3 37.93 37.93 0 00-4.77-1.38 19 19 0 00-4.17.28c.47 1.16.91 2.34 1.43 3.48.2.44.68.74.92 1.17.68 1.18 2.64 2.33.88 3.77-2.13 1.73-2.79-.79-3.74-1.87-2.19-2.49-4.31-5.06-6.28-7.73-1.33-1.79-2.86-3.69-3.35-5.76-.35-1.49 7.51-6.4 9.57-6.48zm-1.84 3.34a18.64 18.64 0 00-3.36 3.66c-.6 1.07 2.44 4.09 3.67 3.95 1.62-.17 3.65-3 3.47-4.85s-1.18-2.6-3.78-2.76zM324.14 529.7a35.65 35.65 0 01-.06 5.94c-.44 2.55 4.26 1.82 2.74 4.37-.82 1.37-3.25 1.72-2.85 4.08 0 .16 0 .4-.09.48-.57.49-1.18 1.31-1.78 1.32s-1.32-.81-1.56-1.43c-1.32-3.54-1.28-3.56-5-3.67-7.84-.25-7.95-.45-3.75-7.24 1.92-3.09 3.75-6.24 5.83-9.22a7.5 7.5 0 013.29-2.7 2.08 2.08 0 013 2.12c.05 2 0 4 0 6zm-3.75 2.79h-.09c0-1.31.06-2.62 0-3.93a1.44 1.44 0 00-.75-1.06 1.34 1.34 0 00-1.15.57c-1.48 2.55-2.92 5.11-4.26 7.74a1.77 1.77 0 00.38 1.65 3.85 3.85 0 005.89-2.52 20 20 0 00-.02-2.45zm38.93-96.87c4.86.09 7.24 2.89 6.67 6.32-.21 1.27-1.18 2.92-.69 3.68.82 1.26 2.52 2 3.88 2.85.83.54 1.79.89 2.58 1.48.44.34 1 1.14.88 1.45a2.06 2.06 0 01-1.5 1.11 11.17 11.17 0 01-3.7-.82c-2.12-.91-4.07-2.23-6.21-3.05-1.57-.6-2.58.54-2 2.17s1.48 3 1.94 4.55a2.87 2.87 0 01-.61 2.4c-.92.89-1.84.29-2.35-.74-2.56-5.19-5.12-10.38-7.61-15.6-.22-.46-.14-1.56.14-1.7 3.18-1.62 6.46-3.11 8.58-4.1zm.75 3.09c-3.13.12-5.3 1.79-5.14 3.32.19 1.79 2 4.08 3.12 4.05 2-.05 4.78-3 4.2-4.75-.37-1.17-1.66-2.04-2.18-2.62zm43.32-296.33c-1 1.36-1.82 2.55-2.65 3.75-2.16 3.11-2.15 3.2.7 5.64.51.43 1.05.82 1.56 1.24 4.69 3.89 5 2.82 7.46-.52.39-.53.79-1.24 1.34-1.44a9.8 9.8 0 012.62-.25c0 .74.33 1.72 0 2.19-3.42 4.49-6.91 8.94-10.53 13.28-.41.5-1.69.28-2.57.39.06-.87.12-1.74.21-2.61 0-.14.21-.26.28-.4q1.49-2.72 2.94-5.43c-2.3-1.88-4.54-3.87-7-5.57-.47-.33-1.94.17-2.54.73-1.21 1.12-2 2.67-3.24 3.76-.52.47-1.68.22-2.55.3 0-.75-.39-1.73 0-2.19 3.49-4.65 7.08-9.23 10.71-13.77a2 2 0 011.68-.44c.5.14.91.76 1.58 1.34zm-84.89-30.79a12 12 0 00-.12 1.4c0 1.77 1 2 2.25 1.22 2-1.22 3.79-2.7 5.78-3.88a11.18 11.18 0 013.59-1.23c.43-.08 1 .61 1.51 1a5.12 5.12 0 01-.89 1.14c-2 1.46-4 3-6.13 4.26s-2.3 2.53-1 4.47c1.76 2.61 3.4 5.31 5 8a1.52 1.52 0 01.18 1.33 1.34 1.34 0 01-1.28.37 14.59 14.59 0 01-3.84-2.76c-1.57-1.9-2.72-4.15-4.15-6.19a2.14 2.14 0 00-1.56-1c-.46.07-1 .83-1.17 1.38-.42 1.43-.47 3-1 4.34-.27.68-1.32 1-2 1.54-.37-.66-1.14-1.38-1-2q1.46-8.58 3.22-17.1a2.08 2.08 0 011.73-1.11 2.6 2.6 0 011.29 1.77 11.24 11.24 0 01-.41 3.05zm49.77 28.05c-.19-8 6.9-13.37 14.5-10.81 3 1 5.91 2.42 7.24 5.61.31.75-.07 1.79-.13 2.7a14.91 14.91 0 01-2.47-1c-.37-.22-.44-.88-.74-1.27-4-5.3-10.06-5-13.44.62-3.48 5.79-.21 11.72 6.6 11.84 1.62 0 3.62-.83 3.6 1.75 0 .43-2.48 1.22-3.79 1.17-5.83-.25-11.24-5.43-11.37-10.61zm-229.49 62.73c-5-.09-10-4.15-10.77-8.66-.84-5.21 2.73-11.85 7.29-13.46a4.79 4.79 0 011.94-.31 1.48 1.48 0 011.07.77 1.52 1.52 0 01-.2 1.37 31.91 31.91 0 01-2.93 1.75c-3.24 1.91-4.88 5.2-4.12 8.26.85 3.46 5.36 7 8.79 7 3.28-.05 6.31-2.78 7.17-6.55.18-.8-.06-1.73.26-2.44s1.06-1.06 1.62-1.57c.44.61 1.19 1.18 1.27 1.83.67 5.49-5.66 12.11-11.39 12.01zM425.13 165a19.42 19.42 0 00-3.16 3.21c-.34.55.1 1.89.6 2.57 1 1.32 2.31 2.38 3.35 3.67.32.39.15 1.17.21 1.77-.71-.05-1.62.15-2.08-.21a32.69 32.69 0 01-2.73-2.9c-2.08-2.13-2.57-2.17-4.47-.41-2.3 2.13-2.38 2.71-.57 4.84 1.29 1.52 2.66 3 3.85 4.57.25.33 0 1.18-.3 1.67a1.51 1.51 0 01-1.32-.12c-2.58-2.58-5.16-5.18-7.54-7.93-.37-.42-.07-2 .45-2.51 3.85-3.89 7.84-7.66 11.79-11.47 1-.91 1.89-1.34 3-.19 2.05 2.18 4.16 4.3 6.15 6.53.3.34.08 1.14.1 1.72-.61 0-1.38.2-1.78-.1-1.19-.89-2.21-2-3.33-3-.63-.55-1.29-1.01-2.22-1.71zM246.34 447.22c-1 .65-1.58 1.31-2 1.23a38.13 38.13 0 01-5.26-1.41c-2.28-.79-3 .7-3.57 2.33s-.44 2.93 1.4 3.64 3.39 1.33 5 2.11c.27.12.45.91.32 1.26a1.33 1.33 0 01-1.09.66c-1.13-.22-2.23-.63-3.34-1-3.56-1.08-4.22-.87-5.14 1.63-1 2.81-.66 3.37 3.15 4.79 1.4.51 2.87.88 4.21 1.51a1.25 1.25 0 01-.89 2.32c-3.31-1.06-6.62-2.17-9.84-3.5a2.63 2.63 0 01-1-2.34q2.55-8.06 5.51-16a2.68 2.68 0 012.36-1.11c2.88.77 5.69 1.83 8.5 2.82a11.38 11.38 0 011.68 1.06zM157.38 184a14.51 14.51 0 01-2.15-1.39c-3.64-3.39-7.22-6.85-10.85-10.25-1.46-1.36-1.8-2.69-.24-4.21 2-2 4-4 6-5.91.29-.26 1.16 0 1.7.19a1.74 1.74 0 01-.12 1.29c-1 1.28-2.25 2.43-3.3 3.71-1.55 1.89-1.32 2.68.63 4.56 1.61 1.56 2.85 1.19 4.17-.31a29.46 29.46 0 013.16-3.16c.36-.3 1.15-.1 1.74-.12-.05.6.11 1.37-.2 1.77a44.64 44.64 0 01-3.28 3.73c-1.45 1.52-.65 2.67.52 3.81s2.48 2.45 4.2.8c1.44-1.38 2.72-2.92 4.22-4.22.49-.42 1.43-.33 2.17-.48-.08.72.1 1.66-.29 2.11-2.07 2.37-4.26 4.64-6.45 6.91a10.53 10.53 0 01-1.63 1.17zm98.24-67.56c1.63-.28 3.26-.64 4.91-.77.47 0 1 .57 1.49.89-.37.48-.66 1.24-1.13 1.38a28.33 28.33 0 01-3.91.71c-2.28.33-3 1.65-2.68 3.86.38 2.55 1 3.17 3.59 2.91 2-.2 3.91-.67 5.88-.85.42 0 1 .65 1.31 1.12.08.11-.49 1-.85 1-3.58.68-7.16 1.36-10.77 1.78-.55.07-1.67-1.08-1.83-1.82-1-5-1.91-10.1-2.83-15.16-.38-2 .53-3.16 2.51-3.49 2.61-.44 5.22-.92 7.85-1.24.38 0 1 .7 1.22 1.19.09.19-.44 1-.79 1-1.6.43-3.23.74-4.86 1-2.21.43-2.42 1.89-2 3.75.27 1.77.9 2.98 2.89 2.74zm1.88 332.02c1.88.93 3.83 1.76 5.61 2.84.47.29.44 1.39.63 2.11-.75.13-1.62.55-2.24.32-.88-.34-1.52-1.28-2.39-1.74-1.56-.83-3.29-1.14-4.47.54s-.41 3.14 1.1 4.27 2.94 2.18 4.4 3.28a5.52 5.52 0 012.13 6.19c-.61 2.41-2.54 3.49-4.77 3.82-3.8.55-7.28-.24-9.9-3.33-.29-.34-.58-1.21-.46-1.31.48-.37 1.2-.83 1.7-.71a11.71 11.71 0 012.55 1.28c1 .55 2.05 1.59 3 1.54a5.45 5.45 0 003.69-1.68c.49-.63 0-2.6-.71-3.42-1.15-1.36-2.88-2.22-4.27-3.4-2.49-2.12-3.17-4.18-2.31-6.54.95-2.52 3.05-3.7 6.71-4.06zm85.5 13.47c.85-.27 1.94-.66 3.05-1a36.7 36.7 0 013.85-1 1.05 1.05 0 01.65 1.94c-3.42 1.26-6.85 2.53-10.34 3.54-.51.15-1.79-.87-2.06-1.6-1.88-5-3.67-10-5.26-15.06a3.06 3.06 0 011.06-2.79 71.09 71.09 0 018.48-2.88c.41-.13 1.05.49 1.58.76-.37.48-.63 1.16-1.11 1.41-1.18.61-2.47 1-3.69 1.51-2.58 1.12-2.85 1.71-2 4.12s1.46 2.65 4.18 1.84c1.28-.37 2.51-.93 3.8-1.19.47-.1 1.06.42 1.6.65-.32.51-.53 1.26-1 1.48-1.49.73-3.08 1.26-4.61 1.88s-1.8 1.71-1.21 3.23.75 3.02 3.03 3.16zM222.07 139.11c-1-.88-1.83-1.26-2.08-1.87-2.07-5.06-4.06-10.15-6-15.26a2.24 2.24 0 011.38-3.22c2.46-1 4.9-2 7.41-2.87.54-.19 1.34.39 2 .61-.42.6-.72 1.41-1.29 1.74a29.5 29.5 0 01-3.68 1.49c-2 .77-2.27 2.13-1.51 4 1 2.49 1.54 2.82 4 2.09 1.42-.41 2.83-.91 4.27-1.22a1.36 1.36 0 011.11.72 1.31 1.31 0 01-.44 1.21 32.38 32.38 0 01-3.63 1.58c-2.15.81-2.7 2.24-1.88 4.33a18 18 0 011.29 3.74c.13.74-.48 1.59-.95 2.93zm40.77 394.53v7.46a8.41 8.41 0 01-.22 2.95c-.32.77-1.22 1.73-1.9 1.76s-1.65-1.07-1.75-1.79a45.37 45.37 0 01-.2-6v-5.47c-.05-4.37-.06-4.35-4.56-5.05a7.73 7.73 0 01-1.7-.7 7.31 7.31 0 011.46-1.65c1.81-1.08 3.72-2 5.57-3s3-.5 3.13 1.49c.2 3.3.06 6.63.06 9.95zm-69.25-402.36a26.45 26.45 0 01-3 2.49c-2.06 1.2-2.18 2.63-1 4.52 2.25 3.49 4.44 7 6.61 10.55.56.93 1.57 1.95 0 2.91-1.36.84-2.18 0-2.85-1-2.17-3.34-4.26-6.73-6.45-10.06-1.92-2.92-2-2.9-5.08-1.52-.45.2-.86.62-1.32.66a6 6 0 01-1.74-.3c.13-.57.07-1.43.43-1.68 2.18-1.52 4.42-2.94 6.7-4.3 1.84-1.11 3.74-2.13 5.68-3.05.43-.17 1.05.37 2.02.78zM368 122.15c-.3.33-.54.82-.92 1a2.91 2.91 0 01-1.46 0c-4.85-.9-4.85-.9-6.62 3.58-1.29 3.24-2.5 6.51-4 9.68-.28.62-1.5.81-2.28 1.2-.23-.85-.86-1.84-.62-2.53 1.18-3.45 2.62-6.82 3.9-10.24 1.52-4 1.47-4-2.24-6.45-.54-.35-.75-1.2-1.11-1.82.57-.17 1.26-.64 1.69-.47 4.33 1.69 8.61 3.49 12.9 5.28.25.04.41.41.76.77zM202.34 125a8.21 8.21 0 011.25 1.53c2.44 4.68 4.82 9.39 7.23 14.08.56 1.1 1 2.2-.38 3s-2.13-.09-2.69-1.19c-2.44-4.87-4.91-9.72-7.26-14.63a1.83 1.83 0 011.85-2.79zm39.73 5.51c-.42.47-.81 1.29-1.21 1.29-.67 0-1.77-.36-1.94-.83-.93-2.66-1.66-5.39-2.43-8.11-.81-2.88-1.67-5.75-2.32-8.66a2.17 2.17 0 011-1.88 2.13 2.13 0 011.95.74c1.7 5.72 3.28 11.49 4.95 17.45zm102.31-15.7c-1.62 5.69-3.05 10.94-4.66 16.13-.2.62-1.36.95-2.07 1.41-.35-.81-1.16-1.75-1-2.43q2.06-7.89 4.5-15.67c.2-.64 1.38-1 2.1-1.45zm-74.5 353.84c.34-3.78.66-7.56 1-11.33a16.69 16.69 0 01.68-3.88c.19-.56 1.09-1 1.76-1.17.24-.06.94.83 1 1.36a11.27 11.27 0 010 3q-.51 5.91-1.1 11.82a6.32 6.32 0 01-.52 2.39c-.35.62-1.12 1-1.7 1.49a15.52 15.52 0 01-1.36-2.18c-.17-.4.05-1 .09-1.46zM499 289.72c.09 2.71-.63 3.79-2.63 3.89-1.82.09-2.78-.66-2.75-2.59 0-2.52.89-3.81 2.72-3.95s2.66.6 2.66 2.65zM284.92 82.92c-1.86.07-2.95-1-3.05-3-.09-1.75.94-2.18 2.44-2.25 1.7-.07 2.86.38 3 2.31s-.67 2.87-2.39 2.94zm181.92 93.76a28.94 28.94 0 012.54 4.06c.4 1-2.39 3.47-3.28 2.87-1.09-.73-2.37-2.19-2.34-3.29s1.66-2.06 3.08-3.64zM224.07 488.71c-.85-.71-2.58-1.46-2.75-2.48s.21-3.4 2.19-3.21a4.41 4.41 0 013.25 2.2c.38 1.18-.26 2.95-2.69 3.49zm64.93 6.81c-.1-1.65.73-2.34 2.32-2.39 2.05-.07 2.92.77 3 2.88a2.08 2.08 0 01-2.31 2.43c-2.01.05-3.01-.83-3.01-2.92zM144.83 141.68c-1.6 1.17-2.78 2.71-3.88 2.66s-2.22-1.65-3.33-2.57c1.17-1.05 2.22-2.7 3.54-3 .9-.12 2.17 1.67 3.67 2.91zm258.66-30.52c1.44 1.55 2.74 2.41 3.21 3.6s-2 3.3-3.15 2.9c-1.31-.46-3.19-.89-2.7-2.8.31-1.2 1.51-2.18 2.64-3.7zm51.18 306.15c-1.33 1.54-2.38 3.57-3.12 3.46a4.89 4.89 0 01-3.35-2.72c-.27-.79 1.37-3.14 2.21-3.16 1.24-.04 2.53 1.35 4.26 2.42zm6.94-8.92c-1.45 1.32-2.44 2.94-3.5 3s-2.17-1.5-3.26-2.35c1-1.14 1.78-2.85 3-3.23.79-.25 2.15 1.43 3.76 2.58zm-21.85 18.36c1.34-1.44 2.55-3.44 3.2-3.27a5.27 5.27 0 013.25 2.94c.23.67-1.57 2.75-2.64 2.9s-2.22-1.42-3.81-2.57zm-334.5-45.65c.92 1.87 2.28 3.43 1.93 4.19-.58 1.22-2.28 1.91-3.5 2.83-.7-1.23-2-2.52-1.9-3.66s1.82-1.85 3.47-3.36zm341.39-232.16c1.2 1.68 2.3 2.71 2.74 4 .37 1.06-2.56 3.35-3.43 2.71-1.06-.78-2.37-2.17-2.32-3.24s1.67-2.03 3.01-3.47zM92.22 229.13c-.83.93-1.56 2.49-2.62 2.75-1.24.31-3.23-.1-3.25-2.08 0-1.37.19-3.29 2.2-3.21a3.54 3.54 0 013.67 2.54zm41.11-82.87c1.3 1.58 3.13 3 2.88 3.69a5.28 5.28 0 01-3.36 2.78c-.6.15-2.44-1.91-2.42-2.93s1.63-2.1 2.9-3.54zM137.74 435c-1.18-1.53-2.73-2.68-2.65-3.69s1.74-2 2.71-3c1.07 1.06 2.67 2 3 3.23.2.65-1.67 1.94-3.06 3.46zM253.18 82.65c.08 2.71-1 3.62-3.13 3.61-1.79 0-2.1-1.15-2.15-2.57-.07-1.84 1-2.93 3.09-2.61.95.15 1.76 1.24 2.19 1.57zm-59.69 393.54c-1.73-1.31-3.25-1.93-3.86-3.05s1.47-3.7 2.75-3.32c1.1.32 2.7 1.3 2.79 2.14.14 1.17-.91 2.48-1.68 4.23zm220.07-350.73c-1.51-1.39-3.43-2.43-3.34-3.26.13-1.26 1.66-2.37 2.6-3.54 1 .92 2.73 1.72 2.92 2.79s-1.2 2.33-2.18 4.01zm-26.01-23.03c-1.21 1.68-1.84 3.1-2.93 3.89-.92.66-3.76-1.63-3.38-2.72s1.33-3 2.29-3.17 2.4 1.13 4.02 2zM90.59 342.32c.21 2.47-1.57 2.65-2.94 2.85-2.19.31-2.21-1.7-2.44-3-.39-2.21 1.66-2.26 3-2.51 2.23-.44 1.87 1.69 2.38 2.66zm331.32-217.68c1.35 1.7 2.93 2.82 2.9 3.91s-1.7 2-2.65 3.07c-1-1-2.71-1.88-2.83-3s1.39-2.24 2.58-3.98zM435.5 439c-1.19-1.77-2.62-3-2.53-4.06s1.75-2.74 2.72-2.74 2.92 1.78 2.83 2.61c-.14 1.24-1.64 2.37-3.02 4.19zM83.54 297.27c.09 2.05-1.25 2.49-2.89 2.54-2.09.06-2.4-1.32-2.34-3 .07-2.14 1.75-2.19 3.19-2.27 1.83-.07 2.08 1.28 2.04 2.73zM282.7 495.7c0 1.72-.68 2.69-2.61 2.6-1.61-.07-2.36-.71-2.32-2.37s.34-2.88 2.36-2.91 2.69.81 2.57 2.68zm-97.18-28.29c-.88.61-2 2-3.09 2s-3.3-.76-2.78-2.63a4.39 4.39 0 012.95-2.64c1.27-.14 2.84.75 2.92 3.27zM84.7 263.87c-.32.28-1.09 1.51-2 1.64-1.36.18-3.24 0-3.17-2.16.06-1.5.32-3.09 2.45-3.05 1.7.04 2.93.59 2.72 3.57zm315.85 195.7c1 1.73 2.31 3 2.15 4.06s-1.66 2.13-2.81 2.76c-.89.49-3.22-2.22-2.68-3.31s1.85-2 3.34-3.51zm-231.62 1.37c1.59-1.41 2.47-2.71 3.65-3.1s3.32 1.94 2.92 3.14-.92 3.15-2.8 2.66c-1.2-.32-2.18-1.52-3.77-2.7zm244.35-3.67a27.21 27.21 0 01-3.85 2.7c-1 .45-3.37-2.23-2.78-3.23s2.06-2.55 3.09-2.52 2.06 1.69 3.54 3.05zM186 110.81a27.83 27.83 0 01-2.52-3.88c-.41-1 2.19-3.37 3.23-2.79s2.42 2.09 2.39 3.15-1.67 2-3.1 3.52zM80.25 288.3c-1.78.23-2.26-.67-2.2-2.28s.54-2.77 2.52-2.73c1.69 0 2.8.48 2.86 2.42.06 2.29-1.43 2.6-3.18 2.59zm413.85 34.06c.33.41 1.44 1.21 1.59 2.15a2.5 2.5 0 01-2.68 3.14c-1.4 0-2.58-.37-2.56-2.17.02-2.05.99-3.19 3.65-3.12zm-99.75-209.74c-1.47-1.44-2.88-2.23-3.3-3.39s1.89-3.7 2.82-3.18c1.15.65 2.72 1.72 2.84 2.76s-1.32 2.25-2.36 3.81zm-227.1 341.01c-1.45 1.49-2.4 3.23-3.39 3.25a2.85 2.85 0 01-.58-5.65c.98-.18 2.27 1.29 3.97 2.4zm181.37 36.5c-2.78-.08-3-1.7-3.1-3.14-.19-2.13 1.7-2.32 3.05-2.47 2.17-.24 2.39 2 2.28 3.1s-1.65 1.91-2.23 2.51zM490.1 338.91c-.42-.35-1.75-1-2.09-1.9-.55-1.58 1.12-3.72 2.52-3.4a4.58 4.58 0 013 1.9c.6 1.39-1.14 3.34-3.43 3.4zM366 94.55c-.6.52-1.5 2-2.58 2.1s-3-.31-3.14-2.27c-.09-1.78 1.41-3.44 2.82-3.12s3.02.46 2.9 3.29zm-199.32 28.52c-1.08-1.71-2.57-3-2.36-4s2.12-2.51 3.13-2.39a4 4 0 012.6 3c-.05.98-1.83 1.92-3.37 3.39zM90.63 350.69c2.94-.2 3.08 1.53 3.33 2.91.41 2.24-1.57 2.25-2.88 2.5-2.1.4-2.67-1.59-2.53-2.8s1.57-2.02 2.08-2.61zm394.54 11.51c-1.71-1.72-3.3-2.6-3.59-3.81-.26-1.05.28-3.3 2.19-3.06a4.23 4.23 0 013.05 2.34c.29 1.01-.82 2.43-1.65 4.53zM88.82 240.38c-.39 1.35-.37 3.15-2.59 2.73-1.18-.22-2.81 0-2.78-2 0-2.21 1-3.72 2.48-3.48s2.91.76 2.89 2.75zm65.8 202.7c1.2 1.77 2.65 3 2.55 4s-1.72 2.05-2.67 3.06c-1-1.13-2.56-2.16-2.79-3.44-.15-.82 1.57-2.02 2.91-3.62zm3.31-313.23l-3.51-3.93c1.17-.83 2.35-2.32 3.5-2.3a4 4 0 012.88 2.64c.11.92-1.56 2.05-2.87 3.59zm-4.68 3.87c-1.51 1.23-2.73 2.94-3.62 2.78-1.26-.23-2.28-1.82-3.41-2.83 1.05-1 2-2.62 3.15-2.71s2.22 1.5 3.88 2.76zM438.47 148c-1.19-1.7-2.75-3-2.58-3.93a2.85 2.85 0 015.68.43c.02 1.01-1.7 2.03-3.1 3.5zm53.33 84.61c-.1 2.75-1.62 3-3.07 3.2-2.09.21-2.28-1.38-2.36-2.89a2.2 2.2 0 012.84-2.41c1.11.22 1.98 1.57 2.59 2.1zM342.14 89.93c-2.23-.07-3.78-1.39-3.49-2.9.26-1.32.29-3.21 2.51-2.7 1.3.29 3.3.14 2.84 2.4-.26 1.27-.12 3.09-1.86 3.2zM149.86 439.15c-1.45 1.29-2.47 2.92-3.53 3s-2.19-1.52-3.28-2.37c1-1.16 1.76-2.89 3-3.27.76-.3 2.17 1.42 3.81 2.64zm303.56-273.64a25.31 25.31 0 01-2.84-3.75c-.46-1 2.12-3.55 3.09-3 1.15.64 2.6 2 2.63 3.06s-1.57 2.12-2.88 3.69zm31.34 45.4c-.07 2.68-1.83 2.76-3.11 3-2.06.42-2.27-1.48-2.7-2.78s1.36-2.95 3.17-2.56c1.1.27 1.95 1.7 2.64 2.34zM468 398.51c-1.3 1.45-2.12 3.17-3.19 3.34s-2.6-1.08-3.34-2.12 1.31-3.84 2.44-3.49a22.67 22.67 0 014.09 2.27zm-84 76.58c-1.88 1.05-3.21 2.38-4.23 2.17a4.29 4.29 0 01-2.62-3c-.29-1.89 1.86-2.47 3.08-2.29s2.09 1.66 3.77 3.12zM100.28 207.24c-1.47 1.54-2.29 3.15-3.32 3.31s-3.18-.24-3-2.38c.09-1.51.43-3.34 2.29-3.25 1.15.08 2.29 1.28 4.03 2.32zm29.99 211.82c1.25 1.58 2.85 2.73 2.77 3.76s-1.88 2.68-2.87 2.64a4 4 0 01-2.86-2.73c-.07-1 1.62-2.11 2.96-3.67zm-3.08-4.99c-1.76 1.12-3 2.54-4 2.41s-2-1.78-3-2.76c1-.93 2-2.57 3.09-2.59s2.17 1.55 3.91 2.94zM104.37 197.8c-.57.66-1.29 2.14-2.44 2.65s-3.47-1.89-3-3.13a5.16 5.16 0 012.38-2.7c1.16-.47 3.16 1.47 3.06 3.18zm370.57-8.05c.12 2.69-1.39 3.15-2.79 3.55-1.22.35-3-1.3-2.58-2.7a4.54 4.54 0 012.72-2.82c.85-.15 2 1.44 2.65 1.97zm-365.33-1.9c-.84.54-1.94 1.78-3.08 1.82a4.26 4.26 0 01-3-2.06c-.54-.92 2-3.5 3-3.26a3.32 3.32 0 013.08 3.5zm366.75 16.77c-.83-1.81-2.07-3.25-1.8-4.3s2.1-1.56 3.25-2.32c.76 1.16 2.24 2.43 2.08 3.44s-1.89 1.82-3.53 3.18zM228.22 91.71c-1.39.07-2.88-1.7-2.75-3.38.16-2.07 2-2 3.34-2.1 2.3-.24 1.92 1.9 2.21 3.13.56 2.4-1.75 1.75-2.8 2.35zm127.07-1.44c-.74.74-1.57 2.28-2.62 2.45-1.21.19-3.13-.26-3-2.4.06-1.38.38-2.81 2.08-2.86 1.48-.04 2.93.38 3.54 2.81zm-238.73 86.89c-1.8 1.38-2.91 2.88-4 2.84s-2-1.62-3-2.53c1-1 1.86-2.62 2.94-2.77s2.26 1.3 4.06 2.46zM464 171.37c-1.74 1-3.09 2.47-4 2.24s-2.44-2.17-2.29-3.14a4 4 0 013-2.53c1.01.06 1.91 1.86 3.29 3.43zM110 398.73c-1.12-1.71-2.69-3.11-2.42-3.9.41-1.24 2.07-2.05 3.2-3 .82 1.11 2.29 2.23 2.28 3.35s-1.6 1.96-3.06 3.55zm19.65-240.24c-1.59 1.41-2.66 3.08-3.65 3a4 4 0 01-2.91-2.65c-.08-.95 1.55-2.75 2.61-2.89s2.3 1.39 3.95 2.54zm339.54 227.37l4.08 2.79-2.76 3.76c-1.09-.86-2.78-1.54-3.11-2.62s1-2.33 1.79-3.93zM103.5 375.23c-1.85 1-3.25 2.3-4.24 2s-1.75-2-2.6-3.16c1.14-.8 2.3-2.26 3.4-2.21s1.94 1.79 3.44 3.37zm327.14-235.18c-1.3-1.62-2.9-2.75-2.83-3.76a3.94 3.94 0 012.77-2.72 3.85 3.85 0 012.78 2.67c.08 1.04-1.47 2.19-2.72 3.81zm-60.42 342.41c-2.8.07-3.1-1.68-3.3-3-.31-2 1.55-2.41 3-2.55a2.49 2.49 0 012.59 2.94c-.16 1.06-1.7 1.98-2.29 2.61zM217.88 95.47c-2.52-.34-3.07-1.73-3.11-3.23-.06-2 1.87-2.2 3.13-2.32 1.89-.18 2.54 1.72 2.28 3-.18 1.08-1.67 1.9-2.3 2.55zM95.39 366.81c-2.51.23-2.74-1.51-3-2.88-.51-2.31 1.67-2.22 2.88-2.53 2.17-.55 2.3 1.52 2.62 2.82.49 2.26-1.71 1.96-2.5 2.59zM333.21 84.1c-.57.74-1.22 2.38-2.25 2.68s-3.17.14-3.25-2c-.06-1.41-.15-3.16 2-3.25 1.43-.02 3-.02 3.5 2.57zm89.26 366.14a27.39 27.39 0 01-3.76 2.79c-1 .49-3.55-2-3-3s2-2.64 3-2.64 2.18 1.55 3.76 2.85zM318.72 79.86c1.21.38 3.17 0 2.86 2.31-.19 1.45-.24 3.18-2.4 3-1.39-.14-3.23-.09-3-2.32.21-1.44.23-3.18 2.54-2.99zM180.47 113c-1.67 1.23-2.65 2.48-3.85 2.73-1.83.37-2.83-1.52-2.67-2.78a4 4 0 012.71-2.77c.94-.08 2.08 1.49 3.81 2.82zM80.8 271.58a2.81 2.81 0 013 3.15c-.09 1.68-1.1 2.23-2.62 2.21s-2.59-.28-2.53-2.16c.02-2.13.69-3.21 2.15-3.2zm412.51 6.2c-.32-2 1.07-2.15 2.72-2.2 2.06-.07 2.45 1.07 2.48 2.78s-.59 2.41-2.3 2.4c-2.35 0-2.91-.48-2.9-2.98zM85.83 319.14c0 2.69-1.29 3.73-3.18 3.61s-1.85-1.56-2-2.81c-.19-1.73 1.09-2.89 3.15-2.51.93.17 1.65 1.37 2.03 1.71zM238 487.88c-.09 2.58-1.26 3.87-2.94 3.66-1.35-.16-2.67-.46-2.74-2.22-.08-1.92 1.19-3.3 2.93-3 1.29.15 2.75.21 2.75 1.56zm102.89 3.39a20.36 20.36 0 01-3.92 1.38c-1.55.16-3.35-1.91-2.62-3.22a4.14 4.14 0 013.41-1.82c1.02.2 1.73 1.92 3.13 3.66zM200.28 102.08c-1.76 1.11-2.84 2.28-4.08 2.48-2 .31-2.25-1.63-2.45-3-.3-2.08 1.65-2.73 2.88-2.58s2.02 1.62 3.65 3.1zM257.81 496c-1.37-.26-3.08 0-3-2.25.05-2 1-3 2.94-2.94 1.51 0 2.58.55 2.43 2.25-.18 1.44-.18 3.07-2.37 2.94zM84.24 308.11c.26 3.16-1.58 3.06-2.9 3.32-1.83.35-2.21-.95-2.24-2.4s.23-2.62 2-2.8 3.07.77 3.14 1.88zm230.92 188.75c-3.15.22-3-1.6-3.18-2.93-.32-2.21 1.44-2.17 2.88-2.32 2.21-.24 2.53 1.57 2.26 2.87-.22 1.06-1.54 1.9-1.96 2.38zm77.94-28.11c0 2.52-1.5 3.28-2.9 3.48-1.9.27-2.77-1.66-2.59-2.88a4 4 0 012.75-2.78c.93-.1 2.03 1.56 2.74 2.18zM206 100.71c-.88-1.85-2.14-3.26-1.89-4.3a4.24 4.24 0 013.12-2.41c1.85-.14 2.47 1.93 2.11 3.24-.34 1.13-1.82 1.96-3.34 3.47zm-85.74 304.06c-1.66 1.19-2.84 2.67-3.89 2.59s-2-1.74-3-2.7c1-1 1.93-2.59 3-2.64s2.18 1.46 3.89 2.75zm357.85-25.01c-.64.59-1.52 2.07-2.56 2.19-1.25.15-3.33-.49-3-2.39a4.34 4.34 0 012.55-3c1.23-.25 2.9.53 3.01 3.2zM205.56 478c-.5.5-1.2 1.77-2.22 2.12-1.41.49-3.61-1.53-3.19-2.77s.52-3.25 2.55-2.89c1.39.29 2.88.96 2.86 3.54zm277.32-108.4c-.67.49-1.69 1.82-2.79 1.9a2.27 2.27 0 01-2.57-2.8c.26-1.28.7-2.75 2.47-2.48 1.45.21 3.01.51 2.89 3.38zM213.48 479c.64.56 2.28 1.31 2.52 2.37.27 1.23-.3 3.31-2.28 3.12a4.32 4.32 0 01-2.93-2c-.65-1.27.84-3.38 2.69-3.49zm144.36 8.18c-.77-1.83-1.93-3.26-1.64-4.27s2.08-1.92 3.26-2c1.9-.1 2.47 1.93 2.06 3.18-.36 1.1-1.99 1.76-3.68 3.09zm-29.39 6.37c.06 1.39-1.69 1.42-3.08 1.54-2.33.21-2-1.78-2.11-3.12-.21-1.9 1.31-2 2.63-2.1 2.11-.17 2.41 1.25 2.56 3.68zm-57.07 1.66c0 2-1.2 2.36-2.89 2.27-1.49-.08-2.6-.54-2.34-2.3.22-1.53.71-2.9 2.69-2.79 1.78.09 2.72.92 2.54 2.82zm38.88-413.98c-.63.57-1.45 1.86-2.55 2.16-1.47.4-2.94-.21-2.82-2.28.09-1.67.69-2.84 2.62-2.72 1.36.09 2.61.32 2.75 2.84zm180.95 174.16c-.3-2.08 1.25-2.53 3-2.84s1.86.87 2 2c.24 2.16-.56 3.19-2.53 3.33-1.61.12-2.35-.56-2.47-2.49zm3.5-10.83c.18 2.06-1.54 1.72-2.67 2-2.11.59-2.53-.9-2.81-2.43-.39-2.11 1.18-2.47 2.65-2.74 1.63-.27 2.65.93 2.83 3.17zM239.75 83.46c2.12.06 2.38 1.88 2.09 3.15a3.91 3.91 0 01-2.71 2.19c-2.08.37-2.24-1.5-2.39-3-.21-2.15 1.51-2.12 3.01-2.34zM95.66 218.76c-.74.66-1.64 2.09-2.74 2.28-1.31.22-3.27-.39-2.83-2.44.23-1.06 1.33-2.56 2.2-2.68 1.26-.18 3.05.19 3.37 2.84zM118.72 164c1.32 1.65 2.89 2.75 2.86 3.8s-1.67 2.07-2.61 3.09c-1-1-2.68-1.88-2.82-3s1.39-2.19 2.57-3.89zm254.45-62.76c-.61-.68-2.13-1.61-2.21-2.65-.09-1.23.65-3.18 2.57-3 1.34.16 3.25.53 2.91 2.59-.22 1.42-.61 3.06-3.27 3.06zm-74.61-19.75c-.31.27-1 1.41-2 1.61a2.21 2.21 0 01-3-2.28c0-1.64.34-2.95 2.31-3 1.85.01 2.82.87 2.69 3.67zm189.55 263.08c.53.46 2.09 1.16 2.35 2.19.34 1.3-.19 3.15-2.21 3.12-1.52 0-3-.54-3-2.52.06-1.31.15-2.74 2.86-2.79zm-56.99 98.19c-1.83 1.26-3.09 2.79-4 2.62s-2.27-1.85-2.5-3.05c-.13-.65 1.71-2.4 2.56-2.34 1.1.09 2.16 1.44 3.94 2.77zm66.31-129.61c-.21 1.83-.28 3.41-2.51 3.14-1.59-.2-2.87-.56-2.7-2.66.14-1.87.93-2.69 2.8-2.53 1.5.12 2.62.54 2.41 2.05zM248.76 492.3c-.32.37-.94 1.76-1.82 1.94a2.55 2.55 0 01-3.28-2.57c.13-1.31.34-2.68 2.17-2.71s2.89.96 2.93 3.34zm57.11 3.26c-.14 1.94-1.54 2.2-3.11 2.18-1.78 0-2-1.27-2.05-2.68 0-1.72 1-2.21 2.47-2.22 1.82-.01 2.68.89 2.69 2.72zM498 266.93c.09 2.12-1.46 2.27-2.95 2.38-2.31.17-2-1.61-2.12-3-.1-1.82 1.26-2 2.61-2.14 2.04-.17 2.35 1.17 2.46 2.76zM86.64 251.28c-.2 1.62-.66 3-2.68 2.87-1.31-.09-2.87 0-2.6-2.08.2-1.5.4-3.12 2.55-2.92 1.33.12 2.75.24 2.73 2.13zm398.58-32.06c2.67.25 3 1.75 3.15 3.24.1 1.2-1.86 2.58-3.24 2.33a2.67 2.67 0 01-2.05-3.4c.19-.95 1.6-1.67 2.14-2.17zM84.66 328.61c2.72.16 3.07 1.62 3.06 3.13 0 1.75-1.51 2-2.79 2.12s-3-1.82-2.49-3.37c.32-.93 1.72-1.49 2.22-1.88zM273.94 83.35c-1.92.05-3.27-.07-3.29-2.21 0-1.75.46-2.76 2.41-2.81s2.55.9 2.61 2.65c.06 1.54-.16 2.67-1.73 2.37zm221.74 216.5c2 0 2.7 1 2.58 2.85s-1 2.28-2.58 2.24-2.47-.56-2.47-2.31.6-2.88 2.47-2.78zM264.39 81.16c.25 2.85-.95 3.16-2.39 3.24-2 .11-2.61-1-2.55-2.75.07-2.05 1.56-2.54 3.06-2.17.93.24 1.63 1.44 1.88 1.68z"/></svg>
