<svg xmlns="http://www.w3.org/2000/svg" viewBox="0 0 314.01 96.07"><defs/><path d="M172.94 48.31a7.18 7.18 0 00-.09.76v6.88c0 1 0 1 1 1h128.33a11.56 11.56 0 011.32.06.42.42 0 01.27.32.46.46 0 01-.3.31 9.65 9.65 0 01-1.08.05H174.65c-2 0-1.79-.23-1.8 1.8v7.73c0 1.07 0 1.08-1.06 1.1s-2.1 0-3.15 0c-.82 0-.87-.06-.88-.91V59.2c0-1.61.11-1.5-1.5-1.5H2.5a13.75 13.75 0 01-1.44-.06c-.09 0-.2-.22-.23-.36s.17-.18.17-.21a1.55 1.55 0 01.52-.07H166c2 0 1.75.21 1.76-1.73V38.1c0-.35.2-.67.65-.67h3.5c.43 0 .63.17.74.6.32 1.2.66 2.4 1.08 3.57a12.93 12.93 0 004.58 5.9 16.06 16.06 0 006.58 2.88 13.67 13.67 0 008.13-.84 15.26 15.26 0 009.32-11.18c.19-.79.3-.92 1.14-.93h3.26c.88 0 1.06.1.9 1a29.13 29.13 0 01-1.09 4.3 18.54 18.54 0 01-3.55 5.83 20.73 20.73 0 01-5.86 4.74 15 15 0 01-4.89 1.7 20.06 20.06 0 01-12.91-1.63 19.4 19.4 0 01-4.85-3.53zM19.91 35.54H.83c-.75 0-.79-.07-.82-.86a17.66 17.66 0 011.64-7.94A21.26 21.26 0 016 20.29 18.48 18.48 0 0116.93 15a22.32 22.32 0 0110.87 1.26A16.4 16.4 0 0132.44 19a20 20 0 015.61 7.26 18 18 0 011.63 6.12c.06.76.2 1.51.22 2.27s0 .85-.91.88H19.91zm0-4.37h13.4c.88 0 .89-.18.69-.86a13.72 13.72 0 00-8.72-9.58 17.31 17.31 0 00-6.27-.9 13 13 0 00-5.89 1.49C9.3 23.21 7.25 26.54 6 30.44c-.19.57-.08.68.55.73h.84zm264.73 4.37H266c-1.36 0-1.4 0-1.35-1.41a20.47 20.47 0 012.73-9.48 20.71 20.71 0 013.33-4.4 17.76 17.76 0 019.18-5 21.78 21.78 0 015.86-.48 19.51 19.51 0 0116.54 10.56 17.32 17.32 0 012 6.63c.08.88.2 1.75.23 2.63s0 .91-1 .94h-18.88zm.11-4.37h13.65c.28 0 .48-.14.38-.52a13.56 13.56 0 00-5.65-8.36 15.54 15.54 0 00-11-2.36 12.89 12.89 0 00-8.69 5.07 16.62 16.62 0 00-2.73 5.47c-.19.63-.15.67.5.71h13.54zm-111.9-8.67a25.55 25.55 0 012-2.34 19.65 19.65 0 015.73-3.92 19.37 19.37 0 018.72-1.45A19.09 19.09 0 01200.14 19a21.27 21.27 0 014.5 4.83 18 18 0 013 7.54c.17 1.23.18 2.48.26 3.71 0 .5-.2.74-.71.74h-3.63c-.58 0-.73-.26-.78-.8a19.34 19.34 0 00-1.15-5.51 14.67 14.67 0 00-3.63-5.63 14.48 14.48 0 00-7.69-3.88 15 15 0 00-17.66 12.41 22.8 22.8 0 00-.27 2.62c0 .52-.27.71-.76.7h-3.26a.73.73 0 01-.83-.8V16.6c.06-.69.19-.86.88-.87h3.74c.53 0 .7.28.7.76v4.46zm-94.22-7.76a24.8 24.8 0 0113.11 3.42 17 17 0 014.77 4.53 6.58 6.58 0 01.42.73.53.53 0 01-.18.82c-1 .66-2.11 1.32-3.18 1.94a.77.77 0 01-.63-.1 2.58 2.58 0 01-.6-.59A15.47 15.47 0 0082.65 20a17.22 17.22 0 00-12.89 2.5 14.71 14.71 0 00-6.28 8.81 18.45 18.45 0 00-.36 3.33c-.07 1-.14 1.16-1.2 1.18h-3.14c-1 0-1 0-1-1.06A20.42 20.42 0 0159.13 28a20 20 0 016-8.33 20.42 20.42 0 019.38-4.42c1.6-.25 3.28-.4 4.12-.51z"/><path d="M20 55.31a18 18 0 01-7.73-1.19A16.84 16.84 0 015 48.86a24.26 24.26 0 01-3.76-6.4 18.23 18.23 0 01-1-4.55c0-.34.15-.44.41-.44h4.13c.58 0 .75.44.78.89a13 13 0 001 3.46 14.17 14.17 0 004.56 6 11.82 11.82 0 005.41 2.51 15.45 15.45 0 004.52.29A19.05 19.05 0 0026.88 49a13.23 13.23 0 005-4c.69-.88 1.29-1.84 1.93-2.75.52-.74.54-.75 1.36-.34s1.84 1 2.75 1.5c.56.31.66.56.38 1.06a22 22 0 01-6 7.24 19.66 19.66 0 01-9.3 3.58 22.22 22.22 0 01-3 .02zm264.76 0a17.71 17.71 0 01-6.31-.71 17.2 17.2 0 01-6.45-3.4 21 21 0 01-7.06-12.26 2.11 2.11 0 010-.36c0-1 0-1.11 1-1.12s2.25 0 3.38 0c.71 0 .8.14.91.85A14.23 14.23 0 00286 50.55a16 16 0 007.79-2.93 19.55 19.55 0 004.86-5.62c.24-.37.47-.53.88-.31 1.1.59 2.2 1.18 3.31 1.75a.53.53 0 01.23.88 49.47 49.47 0 01-3.07 4.57 17.54 17.54 0 01-7.75 5.34 18.17 18.17 0 01-7.49 1.08zm-205.63.12a21.44 21.44 0 01-7.47-1.12 20.47 20.47 0 01-6.34-3.4 19.94 19.94 0 01-6-7.71A16.16 16.16 0 0158 38.59c-.12-1 0-1.12 1-1.13s2.18 0 3.26 0c.88 0 .89 0 1.08.87A15.28 15.28 0 0067.47 46a15.06 15.06 0 008 4.25 17.49 17.49 0 003.2.45 17.8 17.8 0 009.55-2.39 19.18 19.18 0 004.54-3.92.64.64 0 011-.14c1 .67 2 1.31 3 2 .4.25.4.51.14.89a16.9 16.9 0 01-3.8 4 20.47 20.47 0 01-9.91 4c-1.34.11-2.7.18-4.06.29zm73.04 15.34H2.45a11.65 11.65 0 01-1.32 0 .43.43 0 01-.3-.3c0-.11.14-.27.26-.33a1.05 1.05 0 01.47 0H302a14 14 0 011.45 0c.13 0 .25.24.37.37-.11.1-.21.27-.33.29a6.12 6.12 0 01-1 0H152.17zm85.76-35c-1 0-1.94-.05-2.9 0a4.18 4.18 0 01-2.72-.72 15.86 15.86 0 01-4.77-4.16 10.22 10.22 0 01-1.69-7.21 10.75 10.75 0 011-3.32 9.8 9.8 0 017.27-5.36c3.92-.8 7.28.5 10.4 2.7.81.57 1.56 1.24 2.35 1.86.38.31.46.62.06 1-.83.81-1.66 1.63-2.46 2.48-.33.34-.58.31-.92 0-.85-.66-1.72-1.31-2.59-1.95a8.32 8.32 0 00-4-1.46 5.8 5.8 0 00-5.82 2.88 4.46 4.46 0 000 4.68c1 1.8 2.61 2.79 4.26 3.78 1.83 1.09 3.71 2.1 5.55 3.15a14.23 14.23 0 011.39 1 1.65 1.65 0 01.27.47 1.67 1.67 0 01-.54.19zM121.61 18.4v16.28c0 1.07 0 1.08-1.08 1.09h-3c-1 0-1 0-1-1.05V2.52C116.51.93 116.42 1 118 1h2.42c1.17 0 1.17 0 1.18 1.24V18.4zm119.51 19.05c1 0 1.93.06 2.89 0a1.64 1.64 0 011.65.92 11.13 11.13 0 01-1.33 13.35 11.57 11.57 0 01-6.2 3.46A14.71 14.71 0 01232 55a14.47 14.47 0 01-7.22-4.14c-.8-.85-.8-1.08-.06-1.91s1.29-1.43 1.92-2.16c.37-.42.66-.39 1.1 0a25.73 25.73 0 003.26 2.48 7.67 7.67 0 009.64-1 5.71 5.71 0 00-.82-8.88c-.72-.51-1.47-1-2.2-1.47a1.66 1.66 0 01-.3-.34 1.7 1.7 0 01.41-.15h3.38zm-82.66 45.77a10.93 10.93 0 00-3.4 2.62 5.43 5.43 0 00-1.46 2.32.64.64 0 01-.27.39c-.2.11-.47.25-.65.19a.71.71 0 01-.36-.54 3.64 3.64 0 01.05-1.32 55.15 55.15 0 013.63-9.79 9.68 9.68 0 01.76-1.23c.38-.51.86-.64 1.24-.39s.42.69 0 1.27a28.63 28.63 0 00-3 6.39c-.13.37-.55.84-.08 1.17.11.09.64-.35 1-.59.91-.72 1.8-1.47 2.72-2.17a3.22 3.22 0 011.08-.54 1 1 0 01.86.15c.15.15.12.59 0 .85-.5 1.44-1 2.86-1.55 4.29a2 2 0 00-.14.46c-.06.52.21.75.73.6a2.53 2.53 0 00.76-.36c1-.71 1.94-1.43 2.85-2.2a1.47 1.47 0 00.43-.94c.05-1.41 1.17-2 2-2.83.32-.29.85 0 .85.48a1.84 1.84 0 01-.25.77c-.63 1.34-1.28 2.68-1.92 4-.16.32-.39.74 0 1a1.19 1.19 0 001 0 26.83 26.83 0 002.29-1.53 7.16 7.16 0 01.73-.63 2.9 2.9 0 001.12-1.5c1-2.28 2.06-4.53 3.11-6.79.14-.28.35-.54.52-.81s.54-.51.92-.26.6.57.38 1c-.12.26-.29.48-.42.73a50 50 0 00-3.6 7.75 13.44 13.44 0 00-.4 1.51c-.11.55.16.76.69.52a13.82 13.82 0 001.35-.77A12.92 12.92 0 00176 83c.09-.13.24-.26.26-.4.17-1.24 1.24-1.44 2.12-1.83a.74.74 0 011.09.38c.37.74 1.16 1.25 1.26 2.15a3 3 0 010 1 6.23 6.23 0 01-4.61 4.48A1.64 1.64 0 01173.9 87a3.15 3.15 0 00-.05-.43 1.33 1.33 0 00-.42.18 8.89 8.89 0 01-3.3 1.94c-1 .33-1.5 0-1.64-1.05v-.6c0-.46-.18-.46-.5-.23-.48.36-1 .73-1.47 1a10.18 10.18 0 01-1.73.83c-1.15.41-1.75.07-2.07-1.08-.07-.24-.16-.48-.24-.72l-.72.41a26.84 26.84 0 01-2.48 1.46c-1.15.54-1.59.16-1.68-1.1a11 11 0 01.64-3.65c.06-.23.14-.48.22-.74zm17.06 3.51c0 .77.37 1 1 .76 1.7-.71 2.34-2.21 2.78-3.83a1.15 1.15 0 00-.14-.69c-.29-.66-.68-.76-1.2-.3a7.87 7.87 0 00-1.16 1.22 6.17 6.17 0 00-1.28 2.84zm-28.77-60.97v9.4a.53.53 0 01-.59.6h-3.86c-.46 0-.64-.24-.64-.68V16.4a.58.58 0 01.66-.66h3.74c.52 0 .72.26.7.75v.84zm-30.24 20.02v-7.35c0-.93 0-1 1-1h3.26c.82 0 .86.06.87.92v14.83c0 1.14 0 1.15-1.14 1.16h-2.9c-.97 0-1 0-1.06-1.11v-7.48zm30.24.22v7.35c0 .94 0 1-.94 1h-3.38c-.58 0-.79-.24-.78-.8V38.16c0-.53.28-.69.76-.69h3.62c.52 0 .72.25.71.74v2.53zm-2.48-46c2.63-.2 4.14 2.28 4.18 4.16.05 2-2.32 4.2-4.33 4.14A4.54 4.54 0 01140 4.12c-.06-2.35 2.39-4.43 4.27-4.12zm39.2 84.89c1.5-1.18 2.84-2.25 4.2-3.31a2 2 0 01.72-.42c.37-.08.85-.21 1.12 0 .47.28.22.77 0 1.19-.28.62-.57 1.24-.81 1.88a16.9 16.9 0 00-.64 2.06 3.13 3.13 0 00.13 1 2.82 2.82 0 001-.23c1.05-.73 2.06-1.52 3.07-2.31.25-.19.44-.47.7-.66a1.32 1.32 0 01.51-.13 1.45 1.45 0 010 .55 2.31 2.31 0 01-.45.71 15.78 15.78 0 01-4.2 3.38 2.74 2.74 0 01-.67.26c-1.15.3-1.52 0-1.58-1.22a9 9 0 01.55-3.18c.11-.35.24-.69.32-1 0 0-.23-.22-.27-.2a4.68 4.68 0 00-.88.63c-1.33 1.31-3 2.35-3.61 4.28a1.26 1.26 0 01-.42.56.55.55 0 01-.93-.31 3.21 3.21 0 010-1.31 48.39 48.39 0 013.82-10.13 13.93 13.93 0 01.77-1.22.7.7 0 011.05-.23.73.73 0 01.24 1 3.33 3.33 0 01-.35.64c-1.59 2.23-2.4 4.92-3.39 7.72zm-50.83-2.37a7.11 7.11 0 01-.47 1.36 11 11 0 01-4.17 4.25 6.8 6.8 0 01-1.22.5c-1.43.47-2.45-.46-2.08-2a29.25 29.25 0 011.12-3.55c.69-1.76 1.48-3.47 2.21-5.2a3.49 3.49 0 00.31-1 1.49 1.49 0 011.05-1.34c.58-.23 1 0 .87.63a7 7 0 01-.58 1.58c-.63 1.39-1.29 2.76-1.93 4.15a1.65 1.65 0 000 .45 1.4 1.4 0 00.41-.13 10.79 10.79 0 011.32-.83 5.48 5.48 0 011.71-.49c.89-.07 1.47.58 1.45 1.62zm-6.42 4.12c-.07.69.28.94 1 .62a8.09 8.09 0 003.73-4.05 2.32 2.32 0 000-.91c-.3 0-.66-.09-.88 0a13 13 0 00-2.42 1.7 4.2 4.2 0 00-1.43 2.64zM246.8 64.67v-3.6c0-.84.57-1.21 1.34-.86a.88.88 0 01.35.66v6.37c0 .37.17.84-.34 1a1.33 1.33 0 01-1.57-.51c-.47-.69-.92-1.41-1.38-2.12s-.77-1.21-1.17-1.81c0-.06-.17-.14-.18-.12s-.17.16-.17.24v3.49c0 .8-.15.9-.92.88s-.78-.1-.79-.9v-6.26c0-.37-.16-.84.38-1a1.4 1.4 0 011.58.51c.69 1 1.36 2.07 2 3.11l.64 1zm-111.16 17.4c-.15 1.18-.28 2.21-.4 3.24a4.44 4.44 0 00-.07 1c.06.62.56.84 1 .41a7.27 7.27 0 001.15-1.38 8.63 8.63 0 001.25-2.34 4.36 4.36 0 01.61-1.51c.24-.34.38-.88 1-.69s.7.73.37 1.43a23.81 23.81 0 01-1.9 3.47c-.85 1.2-1.89 2.28-2.85 3.41s-2 2.3-3 3.47a.77.77 0 00-.16.63c.22.68-.2 1-.68 1.23a5.94 5.94 0 00-2 1.37.62.62 0 01-.39.25 1.26 1.26 0 01-.79-.09c-.12-.11-.09-.54 0-.74a3.27 3.27 0 011.49-1.67 1.34 1.34 0 00.46-.37c1.11-1.37 2.21-2.75 3.33-4.1.31-.37.5-.55 0-1.06a2.89 2.89 0 01-.43-1.81c0-1.23.16-2.47.18-3.71a2.11 2.11 0 01.57-1.41c.4-.46.74-.39 1 .2a4.47 4.47 0 01.26.77zm82.83-21.92a5.12 5.12 0 011 0c1.84.33 2.32 1.35 1.86 3-.12.41-.25.58.11 1a2.31 2.31 0 01-1.34 4 13.08 13.08 0 01-2.51.15c-.5 0-.71-.32-.71-.79v-6.75a.57.57 0 01.67-.65h1zm.07 5.58c0 .76.1.9.61.91s1.28-.41 1.26-.85-.72-1-1.32-1c-.44-.05-.56.15-.55.94zm0-3.36c0 .56 0 .88.49.87a.62.62 0 00.68-.66c0-.46-.33-.82-.74-.69-.22.11-.36.4-.43.48zM16.22 63.39v2.29c0 .76.42 1.14 1 1.14a1 1 0 001-1.15v-4.46c0-1 .62-1.39 1.56-1a.72.72 0 01.34.54 40.49 40.49 0 010 5.05 2.78 2.78 0 01-3.9 2.49 2.12 2.12 0 01-1.59-1.92c-.12-1.76-.19-3.51-.24-5.27 0-.29.11-.8.26-.83a3.71 3.71 0 011.41 0c.11 0 .23.4.24.62v2.52zm54.15-3.24a1 1 0 011.19.75c.78 2.1 1.6 4.19 2.41 6.28a5.4 5.4 0 01.18.57c.11.34 0 .52-.38.59-.81.15-1.19 0-1.46-.82a1 1 0 00-1.23-.86 3.85 3.85 0 01-1 0 1.38 1.38 0 00-1.71 1.08 1.24 1.24 0 01-1.7.49.74.74 0 01-.07-.63c.73-1.9 1.49-3.8 2.23-5.7a7.22 7.22 0 00.38-1 .86.86 0 011.16-.75zm0 2.65c-.27.63-.5 1.09-.66 1.58 0 .14.07.48.14.49a9.3 9.3 0 001.18 0 4.34 4.34 0 00-.12-.89 12.43 12.43 0 00-.51-1.18zm215.35 2.64v2.12c0 .71-.15.8-.88.79s-.8-.09-.81-.74v-6.74c0-.49.19-.76.71-.73a14.08 14.08 0 012.61.21 2.35 2.35 0 01.82 4c-.66.58-.64.57-.23 1.29a21.63 21.63 0 011.05 2c.21.45.07.64-.45.7-.88.09-1.11 0-1.53-.83s-.72-1.41-1.07-2.12zm0-2.83c0 .34.06.63.5.64a.84.84 0 00.91-.72c0-.43-.28-.67-.78-.68s-.64.15-.62.76zm-81.52-2.44c.68-.16 1 .15 1.19.73.85 2.24 1.74 4.47 2.6 6.71.2.51.09.67-.41.73-.82.11-1.11 0-1.39-.78a1.17 1.17 0 00-1.43-.9 2.41 2.41 0 01-.6 0c-.9-.1-1.67 0-1.9 1.09-.15.68-.75.61-1.28.59s-.65-.26-.47-.71c.36-.94.72-1.87 1.09-2.8.52-1.34 1.07-2.67 1.57-4 .2-.55.49-.83 1.03-.66zm0 4.78h.48c.33 0 .43-.16.28-.45-.22-.45-.45-.9-.68-1.35-.26.46-.53.91-.76 1.39 0 .08.1.32.21.39a1.22 1.22 0 00.49.07zm-100.1-.86a2.65 2.65 0 004 2.36 3.13 3.13 0 00.6-.4.53.53 0 01.83 0c.8.74.79.87-.08 1.5a4.66 4.66 0 01-4.66.54 3.83 3.83 0 01-2.4-4.14c.14-2.21 1.26-3.52 3.62-4a4.55 4.55 0 013.88 1.19.49.49 0 010 .82c-.23.22-.45.56-.72.6s-.52-.25-.78-.41c-1.51-1-3.16-.71-4 .69a6.23 6.23 0 00-.29 1.25zm80.09.22a4 4 0 012.29-3.86 4.3 4.3 0 014.76.37c.28.19.65.63.58.82a2.83 2.83 0 01-.84 1c-.06 0-.29 0-.41-.11-.35-.2-.66-.47-1-.64a2.63 2.63 0 00-3.51 1.39 2.66 2.66 0 001.48 3.36 2.75 2.75 0 002.91-.52c.61-.45.62-.44 1 .11s.52.87 0 1.28a4.63 4.63 0 01-6.46-.65 3.72 3.72 0 01-.8-2.55zm-99.83-.09a3.91 3.91 0 012.5-3.87 4.23 4.23 0 014.72.61c.22.17.48.62.4.76a3.78 3.78 0 01-.91.92s-.27-.11-.4-.19a8.64 8.64 0 00-.91-.57 2.58 2.58 0 10-2 4.75 2.58 2.58 0 002.59-.39c.72-.51 1.17-.39 1.59.39a.63.63 0 01-.07.61 3.52 3.52 0 01-1.07.77 4.6 4.6 0 01-5.48-1 3.92 3.92 0 01-.96-2.79zm36.51-.02v-3.13c0-.87 0-.91.87-.93h3c.62 0 .71.16.71.84s-.09.81-.72.84-1 0-1.57 0a.52.52 0 00-.6.58c0 .39.18.6.58.6h1.57c.57 0 .73.14.74.82s-.09.83-.69.87-1 0-1.45 0-.73.15-.76.68c-.06 1.1 0 1.21 1.18 1.23h.72c.92 0 1.06.19 1 1 0 .45-.23.65-.67.65h-3.26c-.54 0-.68-.3-.68-.77V64.1zm137.04-.07v-3.26c0-.5.2-.74.71-.73h3.27c.55 0 .63.21.63.92 0 .48-.14.78-.68.77s-1.13 0-1.69 0a.47.47 0 00-.52.52c0 .38.11.63.53.64s1.13 0 1.69 0 .67.2.67.9c0 .46-.1.8-.65.79h-1.57c-.44 0-.69.17-.68.64v.6c0 .44.18.67.64.67h1.45c.71 0 .81.16.81.88s-.09.8-.75.81h-3.14c-.51 0-.72-.22-.72-.73.01-1.09 0-2.26 0-3.42zM138.23 59.9a3.31 3.31 0 011.93 1 .38.38 0 010 .62l-.51.5a.47.47 0 01-.74 0 2.64 2.64 0 00-.37-.31c-.34-.2-.76-.27-1 .08-.1.17.1.61.29.8.62.63 1.31 1.19 1.95 1.79a2.07 2.07 0 01.68 1.61 2 2 0 01-1.88 2.35 2.66 2.66 0 01-3-1.38.64.64 0 01.12-.6c.32-.26.65-.67 1.16-.32a3.53 3.53 0 00.87.61.93.93 0 00.84-.16.88.88 0 000-.85c-.38-.46-.88-.81-1.3-1.23A7.7 7.7 0 01136 63c-1-1.76.71-3.1 2.23-3.1zm15 8.6a3.07 3.07 0 01-2.23-1.12c-.23-.28-.51-.54-.15-.92s.89-.59 1.27-.35c.16.1.29.27.45.39.57.4 1 .43 1.29 0s.08-.83-.27-1.15-.57-.44-.82-.7a20.07 20.07 0 01-1.56-1.65 1.75 1.75 0 01.11-2.23 2.08 2.08 0 012.23-.83 3.7 3.7 0 011.2.54c.85.53.86.92.12 1.54-.31.26-.54.2-.85 0s-.87-.71-1.26-.19.29.81.58 1.11c.53.54 1.16 1 1.71 1.51a2.27 2.27 0 01.51 2.56 2.43 2.43 0 01-2.33 1.49zM308 14.84v4.09c0 .28 0 .81-.5.8s-.48-.46-.48-.82V14.1c0-.42 0-.84.52-1a1.07 1.07 0 011.16.45 3.84 3.84 0 01.43.86c.46 1.15.9 2.31 1.43 3.65.55-1.32 1-2.51 1.54-3.69a3.23 3.23 0 01.6-1 1 1 0 01.86-.21 1 1 0 01.46.72v5.3c0 .29 0 .65-.42.57a.83.83 0 01-.51-.54 4.28 4.28 0 01-.05-1.08 22.36 22.36 0 00-.15-3.15c-.51 1.24-1 2.48-1.52 3.73a1.67 1.67 0 01-.17.44c-.19.23-.4.55-.65.62-.43.1-.62-.3-.75-.64-.56-1.46-1.1-2.91-1.66-4.37zM.75 64.12v-3.25c0-.49.19-.74.71-.73h3c.56 0 .64.21.64.92 0 .47-.14.78-.68.77s-.8 0-1.2 0-.55.26-.53.64a.48.48 0 00.51.53h1c.83 0 .93.13.92.87s-.08.78-.86.83c-1.56.08-1.56.08-1.56 1.68v1.2c-.07.58-.33.74-1 .73-.51 0-.88-.18-.89-.74v-3.49zM146.27 88.9a11.42 11.42 0 01-1.3-.35c-.33-.13-.69-.37-.52-.81a.85.85 0 011-.54c.27 0 .51.25.78.29a5.27 5.27 0 001.42.11 1.25 1.25 0 001-1.31 13.93 13.93 0 00-.44-2c-.17-.69-.39-1.38-.5-2.08a2.32 2.32 0 011-2.18 9.49 9.49 0 013.3-1.69 2 2 0 01.23-.07c.47-.06 1-.22 1.33.25a.71.71 0 010 .65 1.2 1.2 0 01-1.31.65 2.24 2.24 0 00-1.62.21 1.93 1.93 0 00-1.26 2.59c.26 1 .61 1.9.87 2.87a2.14 2.14 0 01-1.12 2.63 6.26 6.26 0 01-2.86.78zm152.29-28.76c.52-.07.84.23 1.06.72a13.89 13.89 0 00.72 1.38c.2.32.46.31.64 0s.44-.86.66-1.29a1.45 1.45 0 011.88-.72.48.48 0 01.16.46c-.23.51-.51 1-.77 1.49a21.87 21.87 0 00-1.25 2.46 6.46 6.46 0 00-.21 1.88v1c0 .81-.14.91-.9.9s-.75-.09-.81-.75v-.12c.35-2.15-.47-4-1.52-5.78-.12-.21-.22-.43-.32-.64-.39-.89-.3-1.02.66-.99zM29.76 64v-3c0-.8.1-.85.95-.85s1 .06 1 .82v4.34c0 1.1-.22 1.41 1.29 1.36.81 0 .94.21.89 1 0 .45-.22.66-.67.66h-2.53c-.84 0-.89-.18-.91-1-.04-1.08-.02-2.2-.02-3.33zm242.4 1v-2.41c0-.49-.17-.7-.7-.75a.9.9 0 01-.67-1.38.81.81 0 01.58-.3h3.26c.54 0 .7.28.68.76s0 .86-.62 1-.82.17-.82 1v4.59c0 .91-.18 1-1.1.95-.47 0-.62-.28-.61-.7V65zM43 64.13v-2.9c0-.97.08-1.08.83-1.09s.87.09.88 1v4.94a.49.49 0 00.54.52h.84c.7 0 .8.17.79.9s-.1.77-.76.79H43.7c-.51 0-.71-.23-.71-.73v-3.49zm189.78.07v3.26a.88.88 0 01-1.33.82.84.84 0 01-.34-.66v-6.51c0-.89.09-1 .83-1s.86.09.87.93v3.13zm70.97-51.11h1.69a1.29 1.29 0 01.65.24.39.39 0 01-.15.67 2.52 2.52 0 01-.48.05c-1.11.09-1.12.09-1.13 1.15v3.25a2.12 2.12 0 01-.06.84c-.09.2-.37.33-.57.49-.12-.19-.33-.37-.33-.56v-3.89c0-1 .23-1.4-1.2-1.33-.34 0-.81.06-.78-.47s.43-.5.82-.5h1.57z"/><path d="M167.76 78a4.79 4.79 0 010 .75c-.07.54-.37.65-.84.35a1.66 1.66 0 01-.42-2.1.62.62 0 01.81-.31c.35.15.67.3.52.79a2.49 2.49 0 00-.07.52z"/></svg>
