<svg xmlns="http://www.w3.org/2000/svg" viewBox="0 0 240.75 54.32"><defs/><path d="M30.53 53.17V35.52H17.61v17.65H0V0h12v12.41l36 10.32v30.44zM101.29 53.43H94.2V51.5 37.56a15.19 15.19 0 00-.76-4.56c-.88-2.63-3.12-4-6-4s-5.09 1.36-6 4a15.09 15.09 0 00-.71 4.38c-.09 4.65 0 9.3 0 13.94v2H73.6v-41h7.08V25c.61-.33 1-.53 1.37-.75 8.69-5.13 19.11.56 19.32 10.63.12 5.85 0 11.7 0 17.56.03.27-.04.56-.08.99zM124.81 54.28A16 16 0 11141 38.36a16 16 0 01-16.19 15.92zm9-16c-.07-3.52-1.14-6.62-4.49-8.42a9.15 9.15 0 00-9.49.22c-4.38 2.6-5.53 9.92-2.26 14.33a8.39 8.39 0 002.43 2.16 9 9 0 009.47.12c3.25-1.81 4.3-4.85 4.38-8.43zM168.9 23.14h7.1c0 .51.1.95.1 1.39 0 5.22.09 10.44 0 15.66a19.09 19.09 0 01-.94 5.72c-1.86 5.37-7.38 8.72-13.47 8.39-4.31-.23-8-1.7-10.81-5.17a11.71 11.71 0 01-2.57-7.13c-.12-6.13-.05-12.27-.06-18.41 0-.09.09-.19.18-.38h7V25c0 4.76-.05 9.52 0 14.28a14.4 14.4 0 00.73 4.37 6.38 6.38 0 0011.91 0 14.43 14.43 0 00.76-4.37c.09-4.7 0-9.4 0-14.11zM199.81 29.32H184.3v-6.18h24.09v5.79c-5.16 5.94-10.41 12-15.89 18.27h16.77v6.18h-25.81v-5.8zM215.79 29.38v-6.2h24.14c0 1.81.07 3.62 0 5.42 0 .48-.55 1-.92 1.39q-6.94 8-13.9 16c-.29.34-.55.69-1 1.23h16.68v6.24h-26c0-1.81-.08-3.52.05-5.21a3.17 3.17 0 01.95-1.55q7.22-8.1 14.46-16.16c.26-.29.51-.59 1-1.13z"/></svg>
