<svg xmlns="http://www.w3.org/2000/svg" viewBox="0 0 34.438 34.44"><defs/><path fill-rule="evenodd" d="M17.219 8.36a8.835 8.835 0 108.831 8.84 8.823 8.823 0 00-8.831-8.84zm0 14.58a5.745 5.745 0 115.741-5.74 5.755 5.755 0 01-5.741 5.74zM28.471 8a2.06 2.06 0 10-2.06 2.06A2.065 2.065 0 0028.471 8zm5.848 2.09c-.13-2.75-.761-5.2-2.782-7.21S27.08.23 24.321.1C21.477-.07 12.954-.07 10.11.1a10.253 10.253 0 00-7.216 2.77C.873 4.88.25 7.33.112 10.09c-.162 2.84-.162 11.36 0 14.21.131 2.76.761 5.2 2.782 7.21s4.457 2.65 7.216 2.79c2.844.16 11.367.16 14.211 0 2.759-.14 5.2-.77 7.216-2.79s2.644-4.45 2.782-7.21c.162-2.85.162-11.36 0-14.21zm-3.673 17.26a5.834 5.834 0 01-3.274 3.27c-2.267.9-7.647.69-10.153.69s-7.892.2-10.152-.69a5.82 5.82 0 01-3.274-3.27c-.9-2.27-.692-7.65-.692-10.15s-.2-7.9.692-10.16a5.834 5.834 0 013.274-3.27c2.267-.9 7.647-.69 10.152-.69s7.893-.2 10.153.69a5.822 5.822 0 013.274 3.27c.9 2.27.691 7.65.691 10.16s.208 7.89-.691 10.15z"/></svg>
