<svg xmlns="http://www.w3.org/2000/svg" viewBox="0 0 663.34 536.01"><defs/><path d="M57.47 315.34q17 0 26.07 8.69t9.07 24.54A32 32 0 0188.79 364a28.41 28.41 0 01-11.17 11.3q-7.35 4.2-18.24 4.58l-.19-5.35a52.7 52.7 0 0113.75 1.91 40.6 40.6 0 0113 6.11 33.08 33.08 0 019.74 11.08q3.82 6.87 3.82 17 0 10.89-3.63 18.33a31.27 31.27 0 01-9.64 11.84 39.1 39.1 0 01-13.36 6.3 59.13 59.13 0 01-15 1.91h-50a7.53 7.53 0 01-5.54-2.29A7.53 7.53 0 010 441.17v-118a7.55 7.55 0 012.29-5.54 7.57 7.57 0 015.54-2.29zm-2.1 15.09h-41l2.29-3.25v47.35l-2.1-2.48h41A20.75 20.75 0 0070 366.61q6-5.44 6-15.94 0-9.75-5.44-15t-15.19-5.24zm1.34 56.9H15.28l1.33-1.33v49.84l-1.53-1.72h42.39q11.07 0 18.24-5.73t7.16-17.76q0-9.35-3.82-14.32a20.2 20.2 0 00-9.83-7 39.48 39.48 0 00-12.51-1.98zm76 53.84a7.82 7.82 0 01-7.83 7.83 7.2 7.2 0 01-5.44-2.29 7.69 7.69 0 01-2.2-5.54V323.1a7.84 7.84 0 017.83-7.83 7.17 7.17 0 015.54 2.3 7.88 7.88 0 012.1 5.53zm94.91-90.89a7.32 7.32 0 015.54 2.2 7.81 7.81 0 012.1 5.63v51.94q0 19.29-10.79 29.88t-30.07 10.6q-19.1 0-29.88-10.6t-10.79-29.88v-51.94a7.59 7.59 0 012.2-5.63 7.39 7.39 0 015.44-2.2 7.31 7.31 0 015.53 2.2 7.81 7.81 0 012.1 5.63v51.94q0 13 6.69 19.67t18.71 6.68q12.22 0 18.9-6.68t6.7-19.67v-51.94a7.76 7.76 0 012.1-5.63 7.31 7.31 0 015.52-2.2zm76.75 100.63q-15.28 0-26.74-6.49a46.32 46.32 0 01-17.85-17.85q-6.4-11.37-6.4-26.26 0-16.6 6.59-28.35A46.7 46.7 0 01277.16 354a43.66 43.66 0 0122.43-6.21 45.49 45.49 0 0117.09 3.25 43.49 43.49 0 0114.51 9.55 48 48 0 0110.22 14.89 49.82 49.82 0 014 19.47 7.12 7.12 0 01-2.48 5.07 7.92 7.92 0 01-5.35 2h-75.41l-3.44-13.17h73.51l-3.05 2.67v-4.2a25 25 0 00-5.25-13.46 31.08 31.08 0 00-24.35-11.75 32.27 32.27 0 00-11.36 2.1 28.71 28.71 0 00-10.12 6.5 31.16 31.16 0 00-7.11 11.46 48.19 48.19 0 00-2.67 17 40.72 40.72 0 004.48 19.47 33.93 33.93 0 0012.51 13.27 35 35 0 0018.52 4.87 35.35 35.35 0 0011.75-1.72 34.11 34.11 0 008.49-4.29 39.52 39.52 0 006.11-5.25 8.44 8.44 0 014.78-1.72 6.47 6.47 0 014.77 1.91 6.25 6.25 0 011.91 4.58q0 3.25-3.25 5.92a46.16 46.16 0 01-14.51 10.31 44.46 44.46 0 01-19.52 4.39zM410.34 347.8a42.34 42.34 0 0123.29 6.59 46.67 46.67 0 0116.33 18q6 11.46 6 26.55t-6 26.73a48.06 48.06 0 01-16.23 18.42 40.68 40.68 0 01-23 6.78 39.6 39.6 0 01-13.27-2.19 43.94 43.94 0 01-19.76-14 30.16 30.16 0 01-5-9l4.2-2.49v18.91a7.92 7.92 0 01-2.1 5.54 7.17 7.17 0 01-5.53 2.29 7.39 7.39 0 01-5.44-2.2 7.59 7.59 0 01-2.2-5.63v-119a7.67 7.67 0 012.2-5.53 7.21 7.21 0 015.44-2.3 7.14 7.14 0 015.53 2.3 7.88 7.88 0 012.1 5.53v51.24l-2.86-1.52a28.26 28.26 0 014.68-9.27 37.68 37.68 0 018.21-8 41.7 41.7 0 0110.88-5.64 37.68 37.68 0 0112.53-2.11zm-1.72 14.13a29.86 29.86 0 00-16.9 4.87 32.94 32.94 0 00-11.45 13.2 42.27 42.27 0 00-4.11 19 44.11 44.11 0 004.11 19.28 33.21 33.21 0 0011.45 13.56 29.46 29.46 0 0016.9 5 29 29 0 0016.8-5 34.24 34.24 0 0011.46-13.56 43.31 43.31 0 004.2-19.28 41.51 41.51 0 00-4.2-19 34 34 0 00-11.46-13.18 29.4 29.4 0 00-16.8-4.89zm78.29 79.24a7.73 7.73 0 01-2.2 5.54 7.22 7.22 0 01-5.44 2.29 7.44 7.44 0 01-5.63-2.29 7.69 7.69 0 01-2.2-5.54v-84.58a7.69 7.69 0 012.2-5.54 7.44 7.44 0 015.63-2.29 7.22 7.22 0 015.44 2.29 7.73 7.73 0 012.2 5.54z"/><circle cx="479.08" cy="324.9" r="9.79"/><path d="M516.31 449a7.22 7.22 0 01-5.44-2.29 7.69 7.69 0 01-2.2-5.54v-83.06a7.59 7.59 0 012.2-5.63 7.95 7.95 0 0111 0 7.81 7.81 0 012.1 5.63v25l-2.29-4a41.87 41.87 0 014.1-11.56 40.45 40.45 0 017.55-10.11 34.43 34.43 0 0110.5-7.07 32.1 32.1 0 0113-2.58 15.34 15.34 0 017.73 2 6.2 6.2 0 013.54 5.63c0 2.67-.7 4.68-2.1 6a6.76 6.76 0 01-4.78 2 10.48 10.48 0 01-4.77-1.15 12.83 12.83 0 00-5.73-1.14 18.89 18.89 0 00-9.45 2.67 31.64 31.64 0 00-8.59 7.35 38.72 38.72 0 00-6.3 10.7 34.41 34.41 0 00-2.38 12.92v46.4a7.69 7.69 0 01-2.2 5.54 7.22 7.22 0 01-5.49 2.29zM655.7 315.27a7.33 7.33 0 015.54 2.2 7.82 7.82 0 012.1 5.63v118.07a7.73 7.73 0 01-2.2 5.54 7.73 7.73 0 01-11 0 7.9 7.9 0 01-2.1-5.54V423l3.63-1.14a19.32 19.32 0 01-2.86 9.45 38.61 38.61 0 01-7.83 9.55 39.78 39.78 0 01-11.75 7.25 37.65 37.65 0 01-14.41 2.77 42.29 42.29 0 01-23.39-6.68A46.86 46.86 0 01575 425.9a57 57 0 01-6-26.54q0-15.09 6-26.73a46.34 46.34 0 0116.32-18.24 41.68 41.68 0 0122.91-6.59 42.33 42.33 0 0115.09 2.67 40.35 40.35 0 0112.31 7.26 37.48 37.48 0 018.37 10.12 22.74 22.74 0 013 11.08l-5-1.15V323.1a7.88 7.88 0 012.1-5.53 7.16 7.16 0 015.6-2.3zm-39.33 121.51a29.74 29.74 0 0017-4.87 32.94 32.94 0 0011.36-13.36 46.86 46.86 0 000-38.38 32.81 32.81 0 00-11.46-13.37 29.85 29.85 0 00-16.89-4.87 29.54 29.54 0 00-16.71 4.87 33.39 33.39 0 00-11.55 13.37 45.41 45.41 0 000 38.19 34.06 34.06 0 0011.55 13.46 29.15 29.15 0 0016.7 4.96zM41.44 501.9a10.36 10.36 0 00-8.52 3.84q-3.11 3.84-3.1 10.59 0 7.06 3 10.7t8.64 3.62a23 23 0 004.73-.48c1.52-.33 3.11-.74 4.75-1.25v5.39A29 29 0 0140.68 536q-8.44 0-13-5.11t-4.48-14.61a23.69 23.69 0 012.19-10.49 15.69 15.69 0 016.35-6.88 19.15 19.15 0 019.75-2.4A24.3 24.3 0 0152.37 499l-2.26 5.23A34.08 34.08 0 0046 502.6a14.69 14.69 0 00-4.56-.7zm45.64 33.59l-3.84-10.67H68.55l-3.76 10.67h-6.62l14.37-38.58h6.84l14.37 38.58zm-5.5-16.09L78 509c-.26-.71-.62-1.81-1.09-3.32s-.78-2.61-1-3.31a58.28 58.28 0 01-2.07 7.07l-3.47 10zm21.28-22.33h11.41q7.94 0 11.47 2.31c2.35 1.54 3.53 4 3.53 7.3a8.88 8.88 0 01-1.73 5.6 7.73 7.73 0 01-5 2.81v.27a9.93 9.93 0 016 3 9.07 9.07 0 011.9 6.08 9.87 9.87 0 01-3.61 8.11q-3.62 2.93-10.05 2.93h-13.92zm6.28 15.87h6q3.93 0 5.75-1.25c1.21-.83 1.81-2.25 1.81-4.24a4.26 4.26 0 00-2-3.92c-1.31-.8-3.38-1.21-6.22-1.21h-5.44zm0 5.1v12.17h6.68a9.81 9.81 0 006-1.52 5.56 5.56 0 002-4.77 5.07 5.07 0 00-2-4.44c-1.37-1-3.44-1.44-6.23-1.44zm33.29 17.45v-38.42h6.28v38.42zm52.47 0h-7.7l-18.9-30.62h-.21l.13 1.71q.38 4.89.37 8.94v20h-5.7v-38.45h7.62l18.84 30.46h.16c0-.41-.1-1.87-.21-4.41s-.16-4.5-.16-5.92v-20.13h5.76zm35.91 0h-21.73v-38.42h21.73v5.3h-15.45v10.46h14.48v5.26h-14.48v12.06h15.45zm25.62 0h-6.28v-33h-11.3v-5.38h28.88v5.38h-11.3zm27.5-15.35v15.35h-6.28v-38.42h10.85q7.44 0 11 2.78t3.57 8.41q0 7.17-7.46 10.23l10.85 17h-7.15l-9.2-15.35zm0-5.2h4.36c2.93 0 5-.55 6.36-1.63a5.91 5.91 0 002-4.84 5.21 5.21 0 00-2.13-4.68c-1.42-.94-3.56-1.42-6.42-1.42h-4.15zm43.01-.34l9.1-17.53h6.83l-12.8 23.52v14.9h-6.31V520.8L311 497.07h6.83zm40.51 10.72a10.71 10.71 0 011.68-6 17.56 17.56 0 016.07-5.08 22 22 0 01-3.4-4.93 10 10 0 01-.91-4.17 7.68 7.68 0 012.85-6.3 11.81 11.81 0 017.66-2.32 11 11 0 017.31 2.25 7.53 7.53 0 012.65 6.06 9.05 9.05 0 01-1.77 5.44 19.51 19.51 0 01-5.93 4.89l9.09 8.77a23.54 23.54 0 003.55-8.25h6.36a28.87 28.87 0 01-5.89 12.17l7.92 7.65h-8l-3.91-3.81a19 19 0 01-12.4 4.31q-6 0-9.49-2.86a9.63 9.63 0 01-3.44-7.82zm13.24 5.38a12.51 12.51 0 008.23-2.81L378.85 518a13 13 0 00-3.83 3.35 6.17 6.17 0 00-1.02 3.55 5.34 5.34 0 001.83 4.19 7.11 7.11 0 004.86 1.61zm-3.91-25.36a6 6 0 00.88 3.13 17.75 17.75 0 002.45 3.13 15.17 15.17 0 004.17-3.14 5 5 0 001.19-3.27 3.52 3.52 0 00-1.14-2.74 4.37 4.37 0 00-3-1 4.83 4.83 0 00-3.3 1.06 3.57 3.57 0 00-1.25 2.83zm86.36 10.57q0 9.51-5.28 14.55t-15.22 5h-10.75v-38.39h11.88q9.17 0 14.27 4.94t5.1 13.9zm-6.62.21q0-13.8-12.91-13.8h-5.44v27.89h4.47q13.88 0 13.88-14.09zm40.64 19.37h-21.73v-38.42h21.73v5.3h-15.45v10.46h14.48v5.26h-14.48v12.06h15.45zm34.5-10.44a9.69 9.69 0 01-3.66 8.05q-3.75 2.9-10.27 2.9a24.37 24.37 0 01-10.67-2v-5.94a29.66 29.66 0 005.58 2 23.83 23.83 0 005.51.7q3.74 0 5.5-1.41a4.62 4.62 0 001.78-3.81 4.81 4.81 0 00-1.63-3.66q-1.63-1.5-6.73-3.55-5.25-2.12-7.41-4.86a10.26 10.26 0 01-2.16-6.57 9.21 9.21 0 013.42-7.57q3.42-2.76 9.17-2.76a27 27 0 0111 2.42l-2 5.13a24 24 0 00-9.14-2.16 7 7 0 00-4.63 1.33 4.35 4.35 0 00-1.58 3.51 4.93 4.93 0 00.63 2.56 6.48 6.48 0 002.08 2 35.78 35.78 0 005.2 2.5 28.86 28.86 0 016.21 3.28 9.82 9.82 0 012.89 3.45 10.34 10.34 0 01.91 4.46zm11.47 10.44v-38.42h6.28v38.42zm36.18-20.84h14.14v19.29a40.92 40.92 0 01-6.67 1.6 46.54 46.54 0 01-6.89.47q-8.73 0-13.46-5.16t-4.73-14.57q0-9.28 5.33-14.52t14.7-5.25a28.62 28.62 0 0111.4 2.32l-2.21 5.23a22.13 22.13 0 00-9.35-2.16q-6.15 0-9.73 3.87t-3.57 10.56c0 4.7 1.07 8.26 3.22 10.71s5.23 3.66 9.26 3.66a30.34 30.34 0 006.52-.76V520h-8zm59.41 20.84H631l-18.9-30.62h-.21l.13 1.71q.38 4.89.37 8.94v20h-5.7v-38.45h7.62l18.84 30.46h.16c0-.41-.11-1.87-.21-4.41s-.16-4.5-.16-5.92v-20.13h5.76zM296.66 98.56a7.53 7.53 0 00-.8 1.4l3.79-5.09a50.188 50.188 0 00-2.99 3.69z"/><path d="M401 0a61.8 61.8 0 00-28.65 7A60.56 60.56 0 00351 25.8l-51.35 69.07-3.79 5.13-65 87.38a7.08 7.08 0 00.59 9.14c.41.44 9.07 9.3 25.79 17.3l-53.46 71.86a7.09 7.09 0 003.38 10.93l58.43 20.16a7.15 7.15 0 002.32.39 7.09 7.09 0 007-5.92l10.55-63.12c6.27.87 16.25 2.07 27.95 2.83h.07l9.13.5h.39c18.84 0 36.82-2.66 52-7.7 18.06-6 32.29-15.22 42.28-27.42 15.41-18.83 20.15-43.79 14.08-74.19-3.71-24.27-2-36-1.95-36.09s0-.19 0-.28A34.62 34.62 0 01456 76.45a7.09 7.09 0 005.48-6.17c.06-.28.12-.55.16-.84A61.25 61.25 0 00401 0zm-44.74 90.54c15.72 4 25.78 17 28.35 36.47 3.18 23.46-3.16 47.17-17 63.44-12.1 14.26-29.38 22.11-49.95 22.71-16.21.47-27.43-2-37.81-5.7 20.69-27.63 52.15-69.66 53.15-71.1.12-.15.23-.31.33-.46 8.67-13.11 4.96-22.9-1.33-27.62-5.37-4.07-13.26-5.08-22.1-3 10.6-12.6 30.1-18.92 46.36-14.74zm-110.1 100l37.44-50.32a7.49 7.49 0 001.47-1.3c17.62-20.26 34.41-21.78 38.12-19 1.25 1 .44 4.18-2 7.89-1.84 2.43-10.6 14.15-55.53 74.27a97.12 97.12 0 01-19.5-11.57zM447.93 64a48.83 48.83 0 00-32.55 39.85c-.26 1.74-1.95 14.94 2 40.54a1.91 1.91 0 00.06.33c5.24 26.11 1.5 47.17-11.12 62.58-8.32 10.12-20.32 17.85-35.8 22.98-13.71 4.55-30.08 7-47.35 7l-8.89-.49c-18.81-1.23-33.33-3.71-33.48-3.74a7.1 7.1 0 00-8.19 5.82l-10.31 61.74-41.37-14.28 49.64-66.74a113.59 113.59 0 0043.32 8.22q2.07 0 4.23-.06c24.83-.72 45.8-10.35 60.66-27.86 16.43-19.37 24-47.35 20.29-74.81-3.34-25.4-17.62-43.15-39.18-48.67a59.91 59.91 0 00-28.88 0l31.45-42.27.13-.18A46.12 46.12 0 01401 14.17a47.07 47.07 0 0147 47q0 1.44-.07 2.83z"/></svg>
