<svg xmlns="http://www.w3.org/2000/svg" viewBox="0 0 320.29 65.44"><defs/><path d="M51.3 65.44c-.2-.59-.36-1.2-1.06-1.42-.07 0-.12-.11-.18-.17-1.74-1.64-3.45-3.29-5.2-4.91s-3.35-3-5-4.5l-.18-.18c-1.91-1.81-3.81-3.64-5.74-5.43q-3.57-3.33-7.19-6.63c-2.19-2-4.41-4-6.6-6-2.34-2.15-4.67-4.33-7-6.5a8.83 8.83 0 00-.87-.57v36H0V.92a2.21 2.21 0 012.49.68c3 2.87 6 5.69 9.08 8.53l7.64 7.11L31 28.23c1.2 1.12 2.36 2.27 3.56 3.38q2.63 2.41 5.28 4.8a2.84 2.84 0 00.55.34c.14 0 .18 0 .21-.08a.17.17 0 00.06-.1 1.84 1.84 0 000-.25v-35a.49.49 0 010-.12.56.56 0 010-.12.45.45 0 010-.08.69.69 0 01.11-.12L41 .85l22.3-.1c.33 0 .66 0 1.09.05v29.09c.63 0 .75-.49 1-.78l15.44-21C82.36 6 84 3.91 85.48 1.75a2.06 2.06 0 012-1h25.1c2.86 0 5.73-.07 8.58.05 5.18.21 9.79 1.85 13.35 5.79a15.19 15.19 0 013.91 9.16 14.36 14.36 0 01-.41 5.46 11.63 11.63 0 01-7.06 7.51c-.35.14-.69.29-1 .45a1.63 1.63 0 00-.21.19c6.65 1.75 11.24 5.54 12.61 12.79.71-1.56 1.34-2.9 1.94-4.27 1.68-3.82 3.34-7.65 5-11.48q2.73-6.27 5.44-12.53 1.91-4.36 3.83-8.72 1-2.19 1.93-4.35c.17-.36.23-.83.81-.81s.67.45.84.82q2.31 5.07 4.61 10.16 3.38 7.47 6.77 15c1.76 3.88 3.54 7.75 5.31 11.63q3.53 7.76 7 15.52c1.38 3 2.77 6.08 4.16 9.13.43.94.84 1.89 1.31 2.94h-13.81l-3-7.16h-26.6c-.18.38-.39.83-.58 1.28-.73 1.74-1.46 3.46-2.17 5.21a1.06 1.06 0 01-1.14.75h-11.1a3.48 3.48 0 01-.52-.11l1-2.77a3.56 3.56 0 00-.64.21 23 23 0 01-9.7 2.7 4 4 0 00-.83.19H87.89a2.81 2.81 0 00-.25-.56l-16.26-24c-.19-.26-.39-.51-.75-1a6.2 6.2 0 01-.37.65c-1.64 2-3.26 4-4.94 5.87a3.43 3.43 0 00-.91 2.48v16.59zM108.06 36c-.25 1.18-.21 16.62.06 17.61h11.35a18.33 18.33 0 002.87-.25 7.56 7.56 0 005.61-4 9.48 9.48 0 001.1-5 8.19 8.19 0 00-8.16-8.36c-4.07-.21-8.15-.09-12.23-.12a3.76 3.76 0 00-.6.12zM94.57 10.26c-5.1 6.5-10 13.11-14.9 19.74 5 7.14 9.8 14.21 14.9 21.13zM108 24.59h4.78c2.27 0 4.54-.06 6.8-.17a6.25 6.25 0 004-1.66 5.65 5.65 0 001.74-5 5.31 5.31 0 00-3-4.59 8.75 8.75 0 00-3.91-.75h-9.32c-.33 0-.65 0-1 .08zm44.51 22.26c1.75.26 16.23.19 17.1-.07a1.08 1.08 0 000-.36q-4-9.39-8-18.79a8.2 8.2 0 00-.4-.78.28.28 0 00-.11-.05h-.24c-2.86 6.64-5.63 13.32-8.39 20.05zm128.3 2.24v-12c.3 0 .58-.1.85-.1h4.53a2.93 2.93 0 013.05 3.22c-.05 1.06-.39 1.58-1.62 2.46 2.07.63 2.28 2 2.1 3.84a3 3 0 01-3.13 2.53c-1.88.08-3.76.05-5.78.05zm1.19-1c1.44 0 2.74.05 4 0 2.27-.09 2.62-1.13 2.47-2.76a1.74 1.74 0 00-1.39-1.72 19 19 0 00-5.12-.26zm0-5.79h3.85a3.16 3.16 0 001.07-.29 1.83 1.83 0 001.09-2 1.52 1.52 0 00-1.2-1.67 4.8 4.8 0 00-1.46-.24 22.08 22.08 0 00-3.35.07zM259.91 39v10l-1 .11c-.28-.33-.36-8.8-.17-12h1.34L267 47.49v-10.4l1.06-.11c.28.34.37 9.17.17 12-1.26.33-1.28.33-1.93-.65q-2.85-4.28-5.68-8.57c-.16-.24-.34-.47-.5-.71zm-23.33-2h1.15v4.87a34.87 34.87 0 007.05.12v-4.9L246 37v12s-.1.13-.17.13h-1v-5.66a32.25 32.25 0 00-7.06-.14V49l-1.23.12zm82.61.05h1.1V49h-1v-5.49a28.1 28.1 0 00-7.3-.08V49l-1.13.08V37.05H312v4.88a36.72 36.72 0 007.21.06zM250 42.31h6.11l.14 1H250v4.77h6.87l.14.87a48.83 48.83 0 01-8.17.13 105.5 105.5 0 01-.12-11.87 46.29 46.29 0 018-.13c0 .1.15.2.14.31a4.22 4.22 0 01-.13.66H250zm-16.64 2.83h1.1a4.81 4.81 0 01-4.31 4.25c-3.44.32-5.64-1.48-6.05-5a8.73 8.73 0 01.68-5.12 4.41 4.41 0 013.76-2.55 8.51 8.51 0 012.62 0 4.05 4.05 0 013.23 3.65l-1.06.06A2.79 2.79 0 01233 40a3 3 0 00-2.82-2.28c-1.68-.17-3.18.11-4.12 1.71a6.81 6.81 0 00-.88 4.45 8.42 8.42 0 00.5 2 4 4 0 007.22.23 8.67 8.67 0 00.46-.97zm-31.7-2.01c.46-.43.77-.7 1.06-1 1.51-1.51 3-3 4.52-4.55a1.5 1.5 0 011.81-.47c-1.56 1.57-3.07 3.11-4.61 4.68 1.87 2.43 3.69 4.8 5.54 7.19a1.65 1.65 0 01-2.08-.77c-1.36-1.9-2.84-3.72-4.28-5.58a2.28 2.28 0 00-.32.18c-1.62 1.52-1.61 1.52-1.61 3.75V49l-1.2.06v-12h1.17zM306 63.33v-10.2l.89-.08v11.72c-.94.25-1 .26-1.48-.52-1.92-2.88-3.82-5.78-5.75-8.66-.24-.35-.32-.9-1.05-.9V64c0 .4.12.95-.5 1s-.52-.54-.52-.94V53.62a2.16 2.16 0 01.07-.39c.81-.37 1.23.1 1.62.7q2.47 3.76 5 7.52c.45.68.92 1.35 1.39 2zm-5.81-14.28l-1.38-3.68h-5.5L291.9 49c-.17 0-.37.08-.57.09a4.58 4.58 0 01-.66-.07l4.72-12h1.41l4.62 12zm-6.48-4.75h4.67c-.41-1.14-.71-2.14-1.13-3.07a12.57 12.57 0 00-1.25-2.96zM201.48 33h-.89V21.28c.7-.32 1.09 0 1.45.56 1.16 1.78 2.35 3.54 3.52 5.31.83 1.26 1.65 2.52 2.48 3.77.17.26.38.5.56.73.12 0 .17 0 .2-.07s.07-.06.07-.09V21.28l.87-.12v11.71c-1 .3-1 .3-1.58-.57l-4.82-7.3c-.34-.52-.67-1.06-1-1.56a6.1 6.1 0 00-.82-.69zm48.45-10v10H249V21.28c.69-.31 1.09 0 1.45.55 1.15 1.74 2.32 3.46 3.48 5.2l2.75 4.18c.11.16.25.3.35.42s.17 0 .2-.05a.11.11 0 00.06-.09V21.28l.86-.12v11.7c-1 .31-1 .29-1.58-.56-1.84-2.78-3.66-5.58-5.53-8.35-.2-.37-.29-.95-1.11-.95zm-8.72 10.4a5.06 5.06 0 01-5-3.09 7.13 7.13 0 01.55-7.28 5 5 0 014.93-2.14 5.1 5.1 0 014.24 3.11 7.66 7.66 0 01.29 5.63c-.65 2.02-2.77 3.95-5.01 3.77zm-5-6.23a24.2 24.2 0 00.66 2.82 4.5 4.5 0 008.27-.08 9.51 9.51 0 00.47-2.7 6.84 6.84 0 00-.33-2.46 4.12 4.12 0 00-4.28-3.09 4 4 0 00-4 2.6 20.61 20.61 0 00-.74 2.91zm59.13 31.73a20.69 20.69 0 01-.66 2.88 5.18 5.18 0 01-5.27 3.46 5.3 5.3 0 01-5-3.94 7.36 7.36 0 01.84-6.36 5 5 0 015.26-2.18 5 5 0 014.13 3.24 20.91 20.91 0 01.7 2.9zm-1.08.09a6.64 6.64 0 00-.53-3 4.11 4.11 0 00-3.61-2.51A4 4 0 00286 55.3a7.09 7.09 0 00-.26 6.94 3.64 3.64 0 003.51 2.18h1.14a3.67 3.67 0 003-1.8 6 6 0 00.87-3.62zm-51.56.13a6.82 6.82 0 01-1.7 4.49 5.31 5.31 0 01-8.77-1.61 7.16 7.16 0 01.59-7.16 5.41 5.41 0 018.84.23 7.57 7.57 0 011.04 4.05zm-.84-.06c-.14-.82-.2-1.66-.41-2.46a4.2 4.2 0 00-3.78-3.15 4.25 4.25 0 00-4.54 2.42 7.72 7.72 0 000 6.09 3.72 3.72 0 003.47 2.45 8.83 8.83 0 001.26 0 3.74 3.74 0 003-1.76 7.12 7.12 0 001-3.59zm-20.51 2.37c.38.17.7.21.82.38a7 7 0 01.33.94 2.44 2.44 0 002 1.57 10.61 10.61 0 002.39 0 2.39 2.39 0 00.49-4.63c-1-.37-2.09-.62-3.14-.9a3.78 3.78 0 01-1.92-1.11 2.76 2.76 0 01.52-4.17 4.67 4.67 0 014.89-.37 3 3 0 011.8 2.81c-.46.26-.78.12-.84-.34a2.34 2.34 0 00-1.8-2 4.12 4.12 0 00-3.29.3 2.1 2.1 0 00-1.1 2.1 1.91 1.91 0 001.34 1.79c.83.3 1.7.48 2.54.74a12.89 12.89 0 012 .72 3 3 0 01.4 5 5.28 5.28 0 01-5.49.44c-1.24-.5-1.83-1.57-1.94-3.27zm-2.2-5.43c-.5.19-.78.05-.83-.35a2.36 2.36 0 00-1.91-2.09A4.07 4.07 0 00213 54a2.08 2.08 0 00-.86 2.09 1.85 1.85 0 001.32 1.68c.83.28 1.69.48 2.53.73a17.67 17.67 0 011.78.59 3 3 0 01.74 5.1c-1.57 1.45-5.1 1.28-6.32 0a3.84 3.84 0 01-1.21-2.6l.7-.08c1 2.61 2.07 3.22 4.84 2.83a2.49 2.49 0 001.91-3.5 2.64 2.64 0 00-1.85-1.36l-2.8-.74a3.58 3.58 0 01-.93-.35 2.89 2.89 0 01.22-5.29 4.72 4.72 0 014.9.42 2.8 2.8 0 011.18 2.48zM254 61.13l.79.09c-.13.38-.21.69-.34 1a5 5 0 01-6.28 2.78 4.92 4.92 0 01-3.34-3.76 9.21 9.21 0 01.08-4.83c1.1-4 5.63-4.55 8.14-2.87a3.56 3.56 0 011.53 2.78 2.51 2.51 0 01-.82-.31 1.71 1.71 0 01-.33-.66 3 3 0 00-2.61-1.88 4.27 4.27 0 00-5.2 3.94 9.83 9.83 0 00.16 3.86 3.67 3.67 0 003.46 3.11c1.95.14 3.25 0 4.41-2.49.11-.2.19-.44.35-.76zm16.61 3.7c-.75.29-.93-.12-1.08-.52-.38-1-.75-2-1.13-3.08h-5.84c-.38 1-.74 2-1.12 3-.23.6-.25.59-1.11.7.3-.82.56-1.58.86-2.34 1.08-2.76 2.17-5.51 3.26-8.27a5.79 5.79 0 00.25-.57c.19-.67.64-.8 1.41-.59 1.48 3.84 2.99 7.72 4.5 11.67zm-7.47-4.53h4.91c-.78-2-1.51-4-2.26-5.9-.05-.12-.24-.19-.36-.29a25.76 25.76 0 00-2.29 6.19zm-53.26 4.58l-.82.08c-.47-1.24-.94-2.47-1.45-3.79h-5.29c-.47 0-.64.27-.78.67-.28.82-.62 1.63-.93 2.45-.16.42-.36.75-1.05.54l4.6-11.68c1.12-.14 1.14-.15 1.43.58 1.41 3.66 2.81 7.32 4.29 11.15zM205 54.14c-.24 0-.44 0-.47.09-.87 2-1.6 4-2.31 6.05h5.06c-.79-2.09-1.53-4.07-2.28-6.14zm8.94-24.8c-.4 1.09-.77 2.11-1.16 3.12-.2.5-.22.5-1.05.52.42-1.12.81-2.2 1.23-3.26.94-2.41 1.89-4.81 2.84-7.22.11-.27.26-.53.35-.8a.79.79 0 01.88-.55c.42 0 .53.31.65.64.93 2.46 1.88 4.91 2.82 7.37l1.41 3.71c-.47.32-.76.23-.94-.22-.25-.66-.48-1.33-.73-2-.16-.43-.34-.85-.53-1.32zm5.46-.83c-.82-2.22-1.59-4.26-2.42-6.5a9.92 9.92 0 00-1.44 3.18 16.42 16.42 0 00-1.13 3.32zm43.02.83l-1.19 3.12c-.16.4-.34.81-1 .46.41-1.09.8-2.21 1.24-3.32q1.41-3.62 2.85-7.21c.09-.23.22-.45.3-.68a.78.78 0 01.87-.56c.42 0 .53.32.66.65.91 2.42 1.85 4.83 2.77 7.24.49 1.28 1 2.56 1.45 3.83-.48.34-.77.22-.94-.22-.25-.66-.48-1.33-.73-2-.16-.43-.34-.85-.53-1.32zm5.44-.83c-.83-2.22-1.59-4.27-2.43-6.5a9.92 9.92 0 00-1.43 3.18 17.77 17.77 0 00-1.14 3.32zM218.53 38h-3.74l-.16-.79c.32-.29 6.53-.36 8.92-.15v.91h-3.79c-.13 3.74 0 7.36-.08 11.05l-1.06.07a5.37 5.37 0 01-.1-.54v-9.3c.05-.39.03-.79.01-1.25zm81.92.08l-.05-1h8.86c0 .08.12.18.12.29a3.2 3.2 0 01-.05.62h-3.85V49l-.9.06c-.08-.08-.12-.1-.14-.13a.5.5 0 01-.09-.23V38.08zm-70.58-16.87c.19.47.11.72-.37.73h-3.27c-.13 3.72 0 7.38-.08 11.06l-.86.07c-.09-3.69 0-7.31-.06-11.07h-3.78c-.09-.47-.23-.79.3-.85a6.4 6.4 0 01.76 0h6.29c.37 0 .73.04 1.07.06zm45.27 26.62l-1.14-.06v-3.56h-3.6l-.1-1.1h3.7v-3c0-.8.08-.82 1.08-.6V43h3.58l.14 1.08h-3.66zm-1.32 5.84h-3.72l-.08-.24c.14-.13.29-.37.44-.38h7.04c.36 0 .72 0 1.34.1-.32.3-.45.55-.6.56h-3.47v11.08c-.49.24-.8.16-.89-.25a4.76 4.76 0 010-1v-8.4zM211.85 37H213v12l-1.11.09zm61.36-4.66c2.27.13 4.36 0 6.39.11.15.57-.15.63-.46.63h-6.64a97.37 97.37 0 01-.1-11.85h.81zM232 21.17h.76V33l-.67.1a100.44 100.44 0 01-.09-11.93zm26.18 43.68c-.47.15-.77.14-.82-.34a4.26 4.26 0 010-.5v-9.94a4.22 4.22 0 010-.62c.09-.47.39-.46.81-.29zm23.25.04h-.76V53.18c.41-.2.72-.23.81.32a4.13 4.13 0 010 .5v10.3a5.58 5.58 0 01-.05.59z"/></svg>
