<svg xmlns="http://www.w3.org/2000/svg" viewBox="0 0 226.6 84.01"><defs/><path d="M0 65.84c.61-.28 1-.1 1.08.57.16 1.22 1.08 1.67 2.07 1.92a14.78 14.78 0 003.17.52 83.72 83.72 0 0013.61-.68c4.76-.57 9.54-1.06 14.3-1.62 3.51-.42 7-.93 10.52-1.34 3.76-.45 7.53-.88 11.3-1.23 6.85-.65 13.7-1.27 20.56-1.82 3.53-.28 7.07-.34 10.6-.56 11-.69 22-.84 33-.64 7.08.13 14.15.44 21.22.79 5 .25 10 .64 14.92 1.1 7 .65 13.95 1.4 20.91 2.16 8.16.88 16.32 1.81 24.47 2.74a120.1 120.1 0 0017.57 1.12 25 25 0 003.56-.4c1.37-.23 2.56-.75 2.94-2.29 0-.17.33-.27.51-.41.11.21.36.49.3.6a6.45 6.45 0 01-1.41 2.12 6.35 6.35 0 01-2.8 1 31.87 31.87 0 01-7.93.27c-3.51-.42-7.06-.51-10.57-.89-6.22-.66-12.42-1.47-18.63-2.16-5.2-.59-10.41-1.13-15.62-1.65q-9.33-.93-18.67-1.78c-2.2-.2-4.41-.34-6.62-.45-3.91-.18-7.82-.36-11.74-.48-7.51-.22-15-.58-22.55-.56-8.21 0-16.43.33-24.63.72-6.75.32-13.49.87-20.22 1.49s-13.3 1.41-20 2.15c-7 .79-14 1.63-21.07 2.4-4.58.5-9.17 1-13.77 1.31A38.47 38.47 0 014 69.54 5.24 5.24 0 010 67zM20.12 84c-3.57-2.34-4.68-5.75-3.09-9.36a4.9 4.9 0 014.77-3.09 4.74 4.74 0 014.65 2.65 2.36 2.36 0 01.17 1.7c-.15.43-2 .21-2.43-.19a.87.87 0 01-.2-.32 2.14 2.14 0 00-2.53-1.17 2.43 2.43 0 00-1.95 2.08 5.21 5.21 0 00.36 3.85 2.31 2.31 0 003.93.31c.28-.34.52-.91.83-.94a10.74 10.74 0 012.18.14 7.3 7.3 0 01-.36 1.78A6.1 6.1 0 0123.54 84zM86 46.51c-2.37 1.83-4.46 3.55-6.65 5.13a49.75 49.75 0 01-10.85 6.19 17.19 17.19 0 01-3.46.94 3.12 3.12 0 01-3.76-2.13 9.82 9.82 0 01-.56-2.75c-.32-3.78.6-7.4 1.67-11 .83-2.78 1.84-5.49 2.78-8.23a9.72 9.72 0 00.43-1.25c.11-.65-.27-1-.9-.74a7.38 7.38 0 00-1.33.71A86.41 86.41 0 0045.7 48.5a15.62 15.62 0 00-3.51 6.42 4.16 4.16 0 01-2.43 2.95c-1.8.77-3.12.13-3.23-1.81a18.31 18.31 0 01.47-5.22c.71-2.87 1.61-5.7 2.59-8.5 2.18-6.24 4.3-12.51 6.75-18.66a98.77 98.77 0 0110.4-20.33A14.39 14.39 0 0159.13.69c1.17-1 2.37-.83 3.53.33 1.37 1.37 1.6 2.58.59 3.83-6.52 8.06-10.59 17.41-14.22 27-1 2.71-1.92 5.47-2.88 8.21a9.58 9.58 0 00-.38 1.26 3.36 3.36 0 00.08.88 3.55 3.55 0 00.82-.35c2.88-2.36 5.7-4.8 8.64-7.08 3.35-2.59 6.77-5.08 10.23-7.52a13.17 13.17 0 016.07-2.51 6.08 6.08 0 011.13-.09c2 .14 2.7 1.42 1.9 3.07-1.73 3.57-3.4 7.17-4.93 10.83a48.69 48.69 0 00-3.39 10.6c-.06.38-.14.75-.17 1.12-.14 2.22.84 3.05 3 2.51a23 23 0 008-4.15c3.56-2.61 7-5.44 10.38-8.24a4.57 4.57 0 001.77-4.85 3.29 3.29 0 01.38-2.16 26 26 0 017.92-8.53c1.4-1 2.35-.87 3.26 0s1.08 2.05.27 3.44c-2.08 3.61-4.32 7.13-6.22 10.82-1.53 3-2.7 6.1-4 9.19a7.57 7.57 0 00-.54 2.57c-.06 1.47.57 2 2 2.09a10.85 10.85 0 005.07-1.38 50.48 50.48 0 0010-6.52c2-1.58 3.87-3.24 5.71-5a6.82 6.82 0 001.55-2.3 247.21 247.21 0 0116.4-33 19.67 19.67 0 011.4-2c1-1.33 2.28-1.74 3.44-1.17a3.32 3.32 0 011.59 3.87 10.21 10.21 0 01-1.08 2.2 188.53 188.53 0 00-15.57 30 54.88 54.88 0 00-3.75 11.48c0 .18-.1.36-.12.55-.32 2.33.81 3.38 3.09 2.75a15.45 15.45 0 002.9-1.14 91.32 91.32 0 0015.22-10.24A24.25 24.25 0 00143 36c.8-1.13 1.73-2.17 2.64-3.22a7.83 7.83 0 002.1-4.13 3.48 3.48 0 013.26-3 6 6 0 004.06-1.65 3.73 3.73 0 013-.92 2.36 2.36 0 012.49 2.33 2.49 2.49 0 001.28 1.93 11.26 11.26 0 014.67 7.3 10.25 10.25 0 01-.81 6.09c-4.15 9.76-11.54 15.56-22 17.45a6.6 6.6 0 01-7.67-7.79c.1-.56.19-1.12.29-1.68l.45-2.31c-.65.49-1.32 1-2 1.47a65.21 65.21 0 01-13.06 8.34 15.8 15.8 0 01-6.07 1.79c-2.32.06-3.31-.63-4.13-2.81a10.5 10.5 0 01-.15-6.13c.16-.74.38-1.47.53-2.2a2.52 2.52 0 000-.72 4.9 4.9 0 00-.62.38c-3 2.26-5.82 4.66-8.88 6.77a29.34 29.34 0 01-10.44 4.81 5.91 5.91 0 01-7.27-5.43 14.25 14.25 0 01.5-3.69 19.44 19.44 0 01.83-2.47zm75-10.58a30.4 30.4 0 00-.78-3.35 3.58 3.58 0 00-5.51-1.93 12.16 12.16 0 00-1.92 1.53 41.29 41.29 0 00-7.47 9.67 18.72 18.72 0 00-2.77 8.33c-.11 2.07.91 3.24 3 3.24a9.49 9.49 0 005.94-2.15 27.21 27.21 0 008.75-12.06 25.72 25.72 0 00.76-3.28zm8.81 18.32a37.45 37.45 0 01.86-4.24c3.59-11.35 7.23-22.7 12.27-33.53a81.06 81.06 0 017.24-13 16 16 0 012.53-2.84c1-.89 1.82-.81 2.92 0a5.51 5.51 0 01.94.93c1.12 1.37 1.09 2.08 0 3.53-1.63 2.24-3.33 4.45-4.77 6.81a117 117 0 00-9.54 20.56c-.93 2.48-1.75 5-2.61 7.5a10.06 10.06 0 00-.42 1.45 2.29 2.29 0 00.09.72 2.48 2.48 0 00.81-.25c1.8-1.49 3.51-3.08 5.37-4.5 4.57-3.48 9.15-6.94 13.81-10.3a11.88 11.88 0 015.74-2.33h.19a2.87 2.87 0 012.81.7c.79.91.22 1.89-.2 2.82-1.74 3.85-3.58 7.65-5.16 11.57-1.12 2.79-1.93 5.72-2.79 8.62a7.61 7.61 0 00-.2 2.53c.1 1.6 1 2.3 2.59 1.81a20.93 20.93 0 005-2.14 107.57 107.57 0 009.13-6.41c2.62-2.07 5-4.45 7.47-6.7.55-.5 1-1.26 1.91-.8.57.29.58 1.21-.05 2.23a21.71 21.71 0 01-2.19 3.08 62.58 62.58 0 01-21.24 15.56 17 17 0 01-3.81 1.09 3.07 3.07 0 01-3.81-2.29 14.63 14.63 0 01-.55-4.83c.42-5.58 2.22-10.83 4.13-16.05a16.35 16.35 0 00.7-2.15c.16-.67-.2-.94-.87-.69a5.62 5.62 0 00-1.17.6 85.49 85.49 0 00-17.8 15.22 15.82 15.82 0 00-3.46 6.47 3.91 3.91 0 01-3 3.05 1.87 1.87 0 01-2.58-1.68 20.19 20.19 0 01-.12-2.07zM9.54 58.16c-1.88-.22-3.77-.33-5.62-.68a6.81 6.81 0 01-2.71-1.23 1.93 1.93 0 01-.24-3 4.11 4.11 0 015-1.09 34.65 34.65 0 005.38 1.71A8.32 8.32 0 0018.23 52a5.75 5.75 0 002.09-5.75 35.59 35.59 0 00-3-8.71c-.5-1.15-.95-2.33-1.41-3.5-1.7-4.31-.53-8 2.47-11.3a26.89 26.89 0 019-6.25 39.79 39.79 0 0110.2-3.42 13.17 13.17 0 012.07-.19A2.43 2.43 0 0142 14.32a2.64 2.64 0 01-.51 2.82 5.11 5.11 0 01-4.84 1.95 16 16 0 00-9.76 1.49c-3.67 1.94-6.32 5.28-4.81 10.5a55.26 55.26 0 002 5.89 36.65 36.65 0 012.66 9.41 7.13 7.13 0 01-.51 3.86 10.21 10.21 0 01-4.66 5c-3.25 1.85-7.2 2.76-12.03 2.92zm55.75 19.42v-4.34c0-.95.29-1.4 1.3-1.37h4.73c2.83.13 4.11 2.25 2.89 4.83a.92.92 0 00.1 1.12c1.84 2.85.38 5.67-3 5.82-1.52.07-3 0-4.55 0s-1.41-.07-1.44-1.37c-.06-1.54-.03-3.11-.03-4.69zM70 78.7c-.57 0-1 0-1.45.08-.72.11-.63.72-.56 1.18s.3 1.17.5 1.19a10.56 10.56 0 003-.16c.28-.06.59-.76.59-1.18a1.31 1.31 0 00-.7-1A4.36 4.36 0 0070 78.7zm-.53-2.27a8.76 8.76 0 001.78-.35 1.09 1.09 0 00.59-.8 1.06 1.06 0 00-.64-.78 9.55 9.55 0 00-2.2-.21 1 1 0 00-.9 1.65c.33.34 1 .36 1.4.49zm44.02 1.89v-5a1.51 1.51 0 012.34-1.32 1.15 1.15 0 01.36.81v9.83c0 .34-.37.91-.63.94-.83.11-1.82.41-2.42-.53s-1.28-2.17-1.9-3.27c-.43-.77-.84-1.55-1.28-2.31-.08-.14-.28-.21-.43-.31a2.26 2.26 0 00-.14.49v4.73c0 1.15-.19 1.27-1.34 1.28s-1.34-.12-1.36-1.26v-8.88c0-.58-.27-1.32.6-1.6a2.36 2.36 0 012.66.77c.94 1.57 1.84 3.16 2.75 4.75l.55.93zm63.36-.54v-4.34c0-1.44 0-1.52 1.45-1.55s3 0 4.55 0c3.25.13 4.62 2.77 2.94 5.55a1.52 1.52 0 00-.22.94c.29 1.53.65 3 1 4.56 0 .16 0 .49-.07.49a9.65 9.65 0 01-2.2.17 1.3 1.3 0 01-.8-.86 11.87 11.87 0 01-.14-2.07c0-.71-.36-1.3-1.05-1.37a9.15 9.15 0 00-2.39.18c-.13 0-.23.54-.25.83v1.89c0 1.39-.19 1.48-1.53 1.49-.87 0-1.28-.28-1.26-1.2v-4.72zm4.43-1h.95c.78 0 1.4-.26 1.41-1.15a1.26 1.26 0 00-1.28-1.36 6.58 6.58 0 00-1.88 0 1.27 1.27 0 00-.8.8c-.3 1.43.02 1.73 1.6 1.74zm-50.28.99v-4.53c0-.94.28-1.39 1.29-1.37h6.26c.85 0 1.25.28 1.25 1.2s-.41 1.22-1.27 1.19h-3.6c-.76 0-1.17.29-1.14 1.12s.5.94 1.13.94h3c1.21 0 1.38.24 1.41 1.24s-.54 1.16-1.33 1.13-1.39 0-2.09 0c-2.05 0-2.17.08-2.15 1.2s.11 1.12 2.25 1.13h2.65c1.31.06 1.7.52 1.4 1.8-.07.31-.52.77-.81.77-2.46.07-4.93 0-7.39 0-.8 0-.87-.56-.87-1.17zm-81.18 5.92a1.33 1.33 0 01-1.68-1.17 1.33 1.33 0 00-1.64-1.15 6.47 6.47 0 01-1.32 0 1.4 1.4 0 00-1.64 1.17 2.23 2.23 0 01-2.94 1c-.16-.1-.22-.55-.15-.78.24-.84.55-1.67.85-2.5.88-2.42 1.82-4.83 2.61-7.28.37-1.16 1.16-1.1 2.06-1.14a1.62 1.62 0 011.86 1.19c1 3 2.15 6 3.22 9.06.54 1.57.49 1.62-1.23 1.6zM45.73 76a3.3 3.3 0 00-.19.37A15.77 15.77 0 0045 78c-.06.26 0 .79.09.8a2 2 0 001.09-.08.8.8 0 00.37-.7 8.4 8.4 0 00-.51-1.59 1.44 1.44 0 00-.31-.43z"/><path d="M101 10.28v-.94a3.45 3.45 0 015.32-2.93 1.88 1.88 0 011.17 2.32 32.74 32.74 0 00-.77 7.11c0 .91-.65 1.33-1.58 1.05a5 5 0 01-3.69-3.46c-.29-1-.4-2.08-.59-3.13zm100.3 61.61c1.07-.25 1.74.34 2.18 1.41.31.76.72 1.47 1.1 2.19.26.48.51.5.75 0 .42-.92.84-1.84 1.3-2.73a2.63 2.63 0 013-.71c.14.11.15.57 0 .78a34.44 34.44 0 01-1.7 3.38 9.6 9.6 0 00-1.52 5.91 1.59 1.59 0 01-2.51 1.44 1.11 1.11 0 01-.41-.94c.62-3.11-1.18-5.42-2.53-7.89-.3-.55-.65-1.07-.94-1.63-.52-1-.44-1.13.72-1.19.16-.03.26-.02.56-.02zm-43.01 0h3.41c.89 0 1.25.34 1.24 1.23s-.17 1.34-1.12 1.36c-.68 0-1.66-.09-2 .29s-.29 1.42-.31 2.16v5.48c0 1.16-.2 1.28-1.35 1.29s-1.36-.12-1.38-1.25v-6.44c0-1.43-.05-1.42-1.49-1.53-.66 0-1.46.21-1.81-.65-.45-1.15.09-1.9 1.39-1.93h3.42zM92.2 77.77v4.7c0 1.11-.18 1.2-1.4 1.22s-1.52-.1-1.53-1.28v-9.22c0-1.2.19-1.31 1.5-1.31s1.42.09 1.45 1.37v4.52zm132.98-23.26c-.46 1.15-.9 2.31-1.39 3.44a3.75 3.75 0 01-.66.85 4.43 4.43 0 01-.77-.92 17 17 0 00-1.46-3v3.38c0 .17-.29.32-.44.49-.11-.14-.3-.28-.3-.42V53.6a.86.86 0 01.57-.59.91.91 0 01.77.38c.4.78.67 1.62 1 2.43.18.44.41.86.62 1.29.23-.43.47-.85.67-1.29.31-.69.52-1.43.89-2.09.19-.32.63-.5.95-.75.21.33.58.66.59 1 .07 1.38 0 2.77 0 4.16 0 .2-.21.4-.33.6-.16-.22-.44-.43-.45-.66v-3.54zM217.15 53h1.69c.12 0 .24.22.36.33-.13.12-.25.34-.37.34-1.32-.05-1.29.82-1.27 1.74s0 1.88 0 2.82c0 .19-.23.37-.36.55-.14-.17-.4-.33-.41-.51 0-1-.06-2 0-3s-.07-1.63-1.24-1.59c-.12 0-.25-.21-.38-.33.18-.13.34-.36.53-.38a15 15 0 011.5 0z"/></svg>
