<svg xmlns="http://www.w3.org/2000/svg" viewBox="0 0 125.13 86.44"><defs><style>.cls-1{fill:none;stroke:#000;stroke-linecap:round;stroke-linejoin:round;stroke-width:5px;}</style></defs><g id="Layer_2" data-name="Layer 2"><g id="Layer_1-2" data-name="Layer 1"><path class="cls-1" d="M11.23,2.5H72.65a6.66,6.66,0,0,1,6.66,6.66V35.09a6.66,6.66,0,0,1-6.66,6.66H11.23A8.73,8.73,0,0,1,2.5,33V11.23A8.73,8.73,0,0,1,11.23,2.5Z"/><rect class="cls-1" x="79.31" y="9.8" width="17.11" height="24.65"/><line class="cls-1" x1="96.42" y1="21.05" x2="122.63" y2="21.05"/><line class="cls-1" x1="54.48" y1="2.5" x2="54.48" y2="41.76"/><path class="cls-1" d="M46.78,41.76l-.68,5.43a5.82,5.82,0,0,1-5.77,5.1h-5L32,77.77a7.11,7.11,0,0,1-7,6.17H14.58a7.09,7.09,0,0,1-7.07-7.79l3.37-34.39"/></g></g></svg>