<svg xmlns="http://www.w3.org/2000/svg" viewBox="0 0 82.12 82.54"><defs><style>.cls-1{fill:none;stroke:#000;stroke-linecap:round;stroke-linejoin:round;stroke-width:5px;}</style></defs><g id="Layer_2" data-name="Layer 2"><g id="Layer_1-2" data-name="Layer 1"><path class="cls-1" d="M10.6,58.62,65.51,3.84a4.57,4.57,0,0,1,6.37-.09l6.3,5.93a4.58,4.58,0,0,1,.12,6.55L23.67,71.69Z"/><line class="cls-1" x1="58.46" y1="10.87" x2="71.15" y2="23.49"/><polygon class="cls-1" points="10.6 58.62 2.5 80.04 23.67 71.69 10.6 58.62"/><polyline class="cls-1" points="43.09 26.21 19.4 2.5 2.5 19.3 26.14 43.12"/><polyline class="cls-1" points="39.02 56.1 62.79 80.04 79.62 62.77 55.87 39"/><line class="cls-1" x1="27" y1="10.11" x2="19.75" y2="17.36"/><line class="cls-1" x1="35.71" y1="18.82" x2="31.16" y2="23.36"/><line class="cls-1" x1="62.57" y1="47.21" x2="55.31" y2="54.46"/><line class="cls-1" x1="71.27" y1="55.92" x2="66.73" y2="60.47"/></g></g></svg>